<svg width="352" height="289" viewBox="0 0 352 289" fill="none" xmlns="http://www.w3.org/2000/svg">
<path d="M237.523 288.556H176.164C161.361 288.706 146.675 285.915 132.956 280.342C119.237 274.77 106.756 266.528 96.2352 256.092C85.7146 245.657 77.363 233.234 71.6633 219.544C65.9636 205.854 63.0288 191.168 63.0288 176.334C63.0288 161.5 65.9636 146.814 71.6633 133.124C77.363 119.434 85.7146 107.012 96.2352 96.5759C106.756 86.1402 119.237 77.8979 132.956 72.3257C146.675 66.7534 161.361 63.9618 176.164 64.1122H269.41V67.2267H176.164C161.771 67.0784 147.491 69.791 134.15 75.2077C120.81 80.6243 108.674 88.6375 98.4437 98.7838C88.2134 108.93 80.0917 121.008 74.5492 134.319C69.0066 147.63 66.153 161.911 66.153 176.334C66.153 190.757 69.0066 205.038 74.5492 218.349C80.0917 231.66 88.2134 243.738 98.4437 253.884C108.674 264.031 120.81 272.044 134.15 277.46C147.491 282.877 161.771 285.59 176.164 285.441H237.523C254.027 285.42 269.848 278.84 281.517 267.145C293.186 255.451 299.749 239.596 299.767 223.058V182.88L320.432 169.038C327.673 164.215 333.61 157.672 337.714 149.991C341.817 142.31 343.96 133.731 343.95 125.019C343.958 111.818 339.457 99.0116 331.195 88.7288C322.933 78.446 311.408 71.306 298.536 68.4956L299.203 65.4619C312.759 68.4295 324.896 75.9511 333.6 86.7794C342.304 97.6077 347.053 111.092 347.059 124.996C347.068 134.221 344.799 143.305 340.454 151.439C336.11 159.572 329.825 166.502 322.158 171.61L302.876 184.484V223C302.873 240.374 295.989 257.036 283.735 269.327C271.482 281.619 254.861 288.534 237.523 288.556ZM187.446 214.73H181.068C162.016 214.73 147.684 201.014 147.684 182.834H150.791C150.791 199.238 163.823 211.673 181.102 211.673H187.48C192.152 211.681 196.766 210.631 200.976 208.602C205.186 206.572 208.884 203.616 211.793 199.953C214.998 195.927 219.068 192.678 223.701 190.449C228.333 188.219 233.408 187.068 238.547 187.079H257.185C259.597 187.14 261.998 186.717 264.245 185.834C266.491 184.951 268.539 183.626 270.267 181.938C271.995 180.249 273.368 178.232 274.306 176.003C275.243 173.775 275.726 171.381 275.726 168.963C275.726 166.545 275.243 164.151 274.306 161.923C273.368 159.694 271.995 157.676 270.267 155.988C268.539 154.3 266.491 152.975 264.245 152.092C261.998 151.209 259.597 150.786 257.185 150.847H222.488V147.732H257.185C260.009 147.666 262.818 148.167 265.446 149.204C268.074 150.241 270.469 151.794 272.489 153.772C274.51 155.75 276.115 158.113 277.211 160.722C278.307 163.331 278.872 166.133 278.872 168.963C278.872 171.793 278.307 174.595 277.211 177.204C276.115 179.813 274.51 182.175 272.489 184.153C270.469 186.131 268.074 187.685 265.446 188.722C262.818 189.759 260.009 190.26 257.185 190.194H238.547C233.874 190.181 229.259 191.228 225.046 193.256C220.834 195.283 217.133 198.239 214.222 201.902C211.019 205.935 206.946 209.19 202.308 211.421C197.671 213.653 192.59 214.803 187.446 214.787V214.73Z" fill="black"/>
<path d="M104.986 200.068C100.793 200.068 96.6955 198.822 93.21 196.488C89.7245 194.154 87.0083 190.837 85.4046 186.956C83.8009 183.075 83.3819 178.804 84.2006 174.684C85.0193 170.564 87.0386 166.78 90.0038 163.811C92.9689 160.841 96.7461 158.819 100.858 158.001C104.97 157.183 109.232 157.605 113.104 159.215C116.976 160.824 120.286 163.548 122.613 167.041C124.941 170.535 126.181 174.642 126.179 178.843C126.173 184.472 123.938 189.869 119.965 193.849C115.991 197.828 110.603 200.065 104.986 200.068ZM104.986 160.721C101.409 160.721 97.912 161.784 94.9379 163.775C91.9638 165.766 89.6458 168.597 88.277 171.908C86.9081 175.219 86.5505 178.863 87.2483 182.378C87.9461 185.894 89.6684 189.123 92.1977 191.657C94.7269 194.192 97.9496 195.918 101.458 196.617C104.966 197.316 108.602 196.957 111.907 195.586C115.211 194.214 118.036 191.891 120.023 188.911C122.01 185.931 123.071 182.427 123.071 178.843C123.075 176.46 122.611 174.099 121.704 171.896C120.798 169.692 119.467 167.69 117.787 166.002C116.107 164.315 114.112 162.976 111.916 162.062C109.719 161.148 107.364 160.676 104.986 160.675V160.721Z" fill="black"/>
<path d="M129.529 150.847C125.337 150.847 121.24 149.601 117.755 147.268C114.269 144.934 111.553 141.618 109.949 137.737C108.345 133.857 107.925 129.587 108.743 125.467C109.561 121.348 111.579 117.564 114.543 114.594C117.507 111.624 121.283 109.601 125.394 108.782C129.505 107.962 133.767 108.383 137.639 109.99C141.512 111.597 144.822 114.319 147.151 117.812C149.479 121.304 150.722 125.41 150.722 129.61C150.719 135.242 148.485 140.641 144.511 144.623C140.538 148.605 135.149 150.844 129.529 150.847ZM129.529 111.5C125.952 111.5 122.455 112.563 119.48 114.555C116.506 116.546 114.188 119.377 112.819 122.689C111.451 126.001 111.093 129.646 111.792 133.161C112.491 136.677 114.215 139.906 116.745 142.44C119.276 144.974 122.499 146.699 126.008 147.397C129.516 148.095 133.153 147.734 136.458 146.361C139.762 144.988 142.586 142.663 144.572 139.681C146.557 136.7 147.617 133.195 147.614 129.61C147.611 124.806 145.704 120.2 142.313 116.803C138.922 113.407 134.324 111.5 129.529 111.5Z" fill="black"/>
<path d="M183.52 131.167C179.328 131.167 175.23 129.922 171.745 127.588C168.259 125.254 165.543 121.936 163.939 118.055C162.335 114.174 161.916 109.903 162.735 105.783C163.553 101.664 165.573 97.8797 168.538 94.9101C171.504 91.9406 175.281 89.9189 179.393 89.1007C183.505 88.2826 187.766 88.7049 191.639 90.314C195.511 91.9231 198.82 94.6469 201.147 98.1408C203.475 101.635 204.716 105.742 204.714 109.942C204.708 115.572 202.472 120.969 198.499 124.948C194.525 128.928 189.138 131.164 183.52 131.167ZM183.52 91.8203C179.943 91.8203 176.447 92.8831 173.473 94.8744C170.499 96.8656 168.181 99.6959 166.812 103.007C165.443 106.319 165.085 109.962 165.782 113.478C166.48 116.993 168.203 120.222 170.732 122.757C173.261 125.291 176.484 127.017 179.992 127.716C183.5 128.415 187.136 128.057 190.441 126.685C193.746 125.313 196.57 122.991 198.558 120.01C200.545 117.03 201.605 113.527 201.605 109.942C201.602 105.137 199.696 100.529 196.305 97.1314C192.914 93.7335 188.316 91.8233 183.52 91.8203Z" fill="black"/>
<path d="M129.529 249.209C125.337 249.209 121.239 247.963 117.754 245.629C114.268 243.295 111.552 239.978 109.948 236.096C108.344 232.215 107.925 227.945 108.744 223.825C109.562 219.705 111.582 215.921 114.547 212.952C117.512 209.982 121.29 207.96 125.402 207.142C129.514 206.324 133.775 206.746 137.648 208.355C141.52 209.964 144.829 212.688 147.156 216.182C149.484 219.676 150.725 223.783 150.722 227.984C150.716 233.613 148.481 239.01 144.508 242.989C140.534 246.969 135.147 249.206 129.529 249.209ZM129.529 209.862C125.952 209.862 122.456 210.924 119.482 212.916C116.508 214.907 114.19 217.737 112.821 221.049C111.452 224.36 111.094 228.004 111.792 231.519C112.489 235.035 114.212 238.263 116.741 240.798C119.27 243.332 122.493 245.058 126.001 245.758C129.509 246.457 133.145 246.098 136.45 244.726C139.755 243.355 142.58 241.032 144.567 238.052C146.554 235.072 147.615 231.568 147.615 227.984C147.611 223.178 145.705 218.571 142.314 215.173C138.923 211.775 134.325 209.865 129.529 209.862Z" fill="black"/>
<path d="M183.52 268.888C179.328 268.888 175.231 267.642 171.746 265.309C168.26 262.975 165.544 259.659 163.94 255.778C162.336 251.898 161.916 247.628 162.734 243.508C163.552 239.389 165.57 235.605 168.534 232.635C171.498 229.665 175.274 227.642 179.385 226.823C183.496 226.003 187.758 226.424 191.631 228.031C195.503 229.638 198.813 232.36 201.142 235.853C203.47 239.345 204.714 243.451 204.714 247.651C204.711 253.283 202.476 258.682 198.502 262.664C194.529 266.646 189.14 268.885 183.52 268.888ZM183.52 229.541C179.943 229.541 176.446 230.604 173.471 232.596C170.497 234.587 168.179 237.418 166.81 240.73C165.442 244.042 165.085 247.687 165.783 251.202C166.482 254.718 168.206 257.947 170.736 260.481C173.267 263.015 176.49 264.74 179.999 265.438C183.508 266.136 187.145 265.775 190.449 264.402C193.754 263.029 196.577 260.704 198.563 257.722C200.549 254.741 201.608 251.236 201.605 247.651C201.602 242.847 199.695 238.24 196.304 234.844C192.913 231.448 188.315 229.541 183.52 229.541Z" fill="black"/>
<path d="M247.331 268.888C241.197 268.888 235.201 267.065 230.101 263.651C225.001 260.236 221.026 255.383 218.678 249.704C216.331 244.026 215.717 237.777 216.914 231.749C218.111 225.721 221.064 220.184 225.401 215.837C229.738 211.491 235.265 208.532 241.281 207.332C247.297 206.133 253.532 206.749 259.199 209.101C264.866 211.453 269.709 215.436 273.117 220.547C276.525 225.657 278.344 231.665 278.344 237.812C278.326 246.048 275.052 253.942 269.24 259.766C263.428 265.59 255.551 268.87 247.331 268.888ZM247.331 209.861C241.812 209.861 236.416 211.502 231.827 214.575C227.237 217.648 223.661 222.015 221.549 227.125C219.437 232.235 218.885 237.858 219.963 243.282C221.04 248.707 223.7 253.689 227.603 257.599C231.507 261.509 236.48 264.172 241.894 265.249C247.308 266.327 252.919 265.771 258.018 263.653C263.117 261.535 267.474 257.949 270.539 253.349C273.604 248.75 275.238 243.342 275.236 237.812C275.227 230.4 272.284 223.294 267.052 218.054C261.82 212.814 254.728 209.868 247.331 209.861Z" fill="black"/>
<path d="M301.322 131.167C297.13 131.167 293.032 129.922 289.547 127.588C286.061 125.254 283.344 121.936 281.741 118.055C280.137 114.174 279.718 109.903 280.537 105.783C281.355 101.664 283.375 97.8797 286.34 94.9101C289.305 91.9406 293.083 89.9189 297.195 89.1007C301.306 88.2826 305.568 88.7049 309.441 90.314C313.313 91.9231 316.622 94.6469 318.949 98.1408C321.277 101.635 322.517 105.742 322.515 109.942C322.506 115.571 320.27 120.966 316.297 124.945C312.324 128.923 306.939 131.161 301.322 131.167ZM301.322 91.8203C297.745 91.8203 294.249 92.8831 291.274 94.8744C288.3 96.8656 285.982 99.6959 284.613 103.007C283.245 106.319 282.886 109.962 283.584 113.478C284.282 116.993 286.004 120.222 288.534 122.757C291.063 125.291 294.286 127.017 297.794 127.716C301.302 128.415 304.938 128.057 308.243 126.685C311.547 125.313 314.372 122.991 316.36 120.01C318.347 117.03 319.407 113.527 319.407 109.942C319.404 105.137 317.498 100.529 314.107 97.1314C310.716 93.7335 306.118 91.8233 301.322 91.8203Z" fill="black"/>
<path d="M217.791 156.58L196.114 129.437L337.549 2.37496C339.194 0.863514 341.359 0.0498007 343.59 0.104923C345.821 0.160046 347.944 1.07969 349.512 2.67053C351.08 4.26136 351.972 6.3995 351.999 8.63542C352.027 10.8713 351.188 13.0309 349.66 14.6602L217.791 156.58ZM200.385 129.783L217.975 151.816L347.38 12.5376C348.101 11.7526 348.579 10.7744 348.755 9.72229C348.932 8.67013 348.799 7.58939 348.373 6.61152C347.947 5.63366 347.247 4.80089 346.357 4.21461C345.468 3.62833 344.428 3.31379 343.363 3.30933C341.985 3.29982 340.653 3.80109 339.622 4.71668L200.385 129.783Z" fill="black"/>
<path d="M217.791 156.58L196.114 129.437L219.011 108.869L241.344 131.236L217.791 156.58ZM200.385 129.783L217.975 151.816L237.016 131.317L218.896 113.161L200.385 129.783Z" fill="black"/>
<path d="M169.902 190.194C163.241 190.187 156.678 188.59 150.756 185.535C144.834 182.48 139.724 178.055 135.849 172.626L121.621 152.646H154.602C163.433 152.643 171.985 149.546 178.777 143.891L198.52 127.396L219.944 154.238L201.721 175.544C197.791 180.148 192.91 183.842 187.417 186.371C181.923 188.9 175.947 190.205 169.902 190.194ZM127.641 155.761L138.37 170.815C141.785 175.609 146.244 179.562 151.409 182.374C156.575 185.186 162.311 186.783 168.184 187.044C174.056 187.305 179.911 186.224 185.305 183.882C190.699 181.539 195.489 177.998 199.315 173.525L215.869 154.169L198.025 131.825L180.757 146.279C173.413 152.398 164.165 155.752 154.614 155.761H127.641Z" fill="black"/>
<path d="M343.582 110.092L334.258 90.263L318.072 74.967L308.862 92.3508C312.937 92.916 316.034 96.492 317.956 100.829C319.343 102.54 320.008 104.725 319.81 106.92C320.266 109.172 320.332 111.486 320.006 113.761C318.337 123.542 310.094 132.148 300.228 128.514C297.835 128.617 295.442 128.297 293.16 127.568C292.335 127.312 291.557 126.923 290.857 126.415L273.59 158.933C275.551 164.804 275.767 171.121 274.211 177.113C271.425 180.882 267.934 184.071 263.931 186.502C262.559 187.7 260.789 188.338 258.97 188.291C258.647 188.291 258.336 188.291 258.048 188.291L246.802 209.469C257.934 208.604 270.481 215.237 274.568 225.919C278.586 236.37 275.996 250.351 268.628 258.783C258.648 270.215 228.463 270.595 222.845 254.642L205.658 286.999H241.725L260.144 282.869L279.576 271.161L292.722 255.196L299.63 237.812L301.356 219.448V183.688L326.084 166.777L339.898 149.266L345.217 131.248L343.582 110.092Z" fill="#007DA1"/>
<path d="M124.625 154.203C124.625 154.203 157.423 182.211 176.728 169.465C196.034 156.718 348.52 13.6104 348.52 13.6104L200.488 174.529C200.488 174.529 187.825 194.704 157.284 186.595C138.992 176.34 124.625 154.203 124.625 154.203Z" fill="#007DA1"/>
<path d="M237.523 288.556H176.164C161.361 288.706 146.675 285.915 132.956 280.342C119.237 274.77 106.756 266.528 96.2352 256.092C85.7146 245.657 77.363 233.234 71.6633 219.544C65.9636 205.854 63.0288 191.168 63.0288 176.334C63.0288 161.5 65.9636 146.814 71.6633 133.124C77.363 119.434 85.7146 107.012 96.2352 96.5759C106.756 86.1402 119.237 77.8979 132.956 72.3257C146.675 66.7534 161.361 63.9618 176.164 64.1122H269.41V67.2267H176.164C161.771 67.0784 147.491 69.791 134.15 75.2077C120.81 80.6243 108.674 88.6375 98.4437 98.7838C88.2134 108.93 80.0917 121.008 74.5492 134.319C69.0066 147.63 66.153 161.911 66.153 176.334C66.153 190.757 69.0066 205.038 74.5492 218.349C80.0917 231.66 88.2134 243.738 98.4437 253.884C108.674 264.031 120.81 272.044 134.15 277.46C147.491 282.877 161.771 285.59 176.164 285.441H237.523C254.027 285.42 269.848 278.84 281.517 267.145C293.186 255.451 299.749 239.596 299.767 223.058V182.88L320.432 169.038C327.673 164.215 333.61 157.672 337.714 149.991C341.817 142.31 343.96 133.731 343.95 125.019C343.958 111.818 339.457 99.0116 331.195 88.7288C322.933 78.446 311.408 71.306 298.536 68.4956L299.203 65.4619C312.759 68.4295 324.896 75.9511 333.6 86.7794C342.304 97.6077 347.053 111.092 347.059 124.996C347.068 134.221 344.799 143.305 340.454 151.439C336.11 159.572 329.825 166.502 322.158 171.61L302.876 184.484V223C302.873 240.374 295.989 257.036 283.735 269.327C271.482 281.619 254.861 288.534 237.523 288.556ZM187.446 214.73H181.068C162.016 214.73 147.684 201.014 147.684 182.834H150.791C150.791 199.238 163.823 211.673 181.102 211.673H187.48C192.152 211.681 196.766 210.631 200.976 208.602C205.186 206.572 208.884 203.616 211.793 199.953C214.998 195.927 219.068 192.678 223.701 190.449C228.333 188.219 233.408 187.068 238.547 187.079H257.185C259.597 187.14 261.998 186.717 264.245 185.834C266.491 184.951 268.539 183.626 270.267 181.938C271.995 180.249 273.368 178.232 274.306 176.003C275.243 173.775 275.726 171.381 275.726 168.963C275.726 166.545 275.243 164.151 274.306 161.923C273.368 159.694 271.995 157.676 270.267 155.988C268.539 154.3 266.491 152.975 264.245 152.092C261.998 151.209 259.597 150.786 257.185 150.847H222.488V147.732H257.185C260.009 147.666 262.818 148.167 265.446 149.204C268.074 150.241 270.469 151.794 272.489 153.772C274.51 155.75 276.115 158.113 277.211 160.722C278.307 163.331 278.872 166.133 278.872 168.963C278.872 171.793 278.307 174.595 277.211 177.204C276.115 179.813 274.51 182.175 272.489 184.153C270.469 186.131 268.074 187.685 265.446 188.722C262.818 189.759 260.009 190.26 257.185 190.194H238.547C233.874 190.181 229.259 191.228 225.046 193.256C220.834 195.283 217.133 198.239 214.222 201.902C211.019 205.935 206.946 209.19 202.308 211.421C197.671 213.653 192.59 214.803 187.446 214.787V214.73Z" fill="white"/>
<path d="M104.986 200.068C100.793 200.068 96.6955 198.822 93.21 196.488C89.7245 194.154 87.0083 190.837 85.4046 186.956C83.8009 183.075 83.3819 178.804 84.2006 174.684C85.0193 170.564 87.0386 166.78 90.0038 163.811C92.9689 160.841 96.7461 158.819 100.858 158.001C104.97 157.183 109.232 157.605 113.104 159.215C116.976 160.824 120.286 163.548 122.613 167.041C124.941 170.535 126.181 174.642 126.179 178.843C126.173 184.472 123.938 189.869 119.965 193.849C115.991 197.828 110.603 200.065 104.986 200.068ZM104.986 160.721C101.409 160.721 97.912 161.784 94.9379 163.775C91.9638 165.766 89.6458 168.597 88.277 171.908C86.9081 175.219 86.5505 178.863 87.2483 182.378C87.9461 185.894 89.6684 189.123 92.1977 191.657C94.7269 194.192 97.9496 195.918 101.458 196.617C104.966 197.316 108.602 196.957 111.907 195.586C115.211 194.214 118.036 191.891 120.023 188.911C122.01 185.931 123.071 182.427 123.071 178.843C123.075 176.46 122.611 174.099 121.704 171.896C120.798 169.692 119.467 167.69 117.787 166.002C116.107 164.315 114.112 162.976 111.916 162.062C109.719 161.148 107.364 160.676 104.986 160.675V160.721Z" fill="white"/>
<path d="M129.529 150.847C125.337 150.847 121.24 149.601 117.755 147.268C114.269 144.934 111.553 141.618 109.949 137.737C108.345 133.857 107.925 129.587 108.743 125.467C109.561 121.348 111.579 117.564 114.543 114.594C117.507 111.624 121.283 109.601 125.394 108.782C129.505 107.962 133.767 108.383 137.639 109.99C141.512 111.597 144.822 114.319 147.151 117.812C149.479 121.304 150.722 125.41 150.722 129.61C150.719 135.242 148.485 140.641 144.511 144.623C140.538 148.605 135.149 150.844 129.529 150.847ZM129.529 111.5C125.952 111.5 122.455 112.563 119.48 114.555C116.506 116.546 114.188 119.377 112.819 122.689C111.451 126.001 111.093 129.646 111.792 133.161C112.491 136.677 114.215 139.906 116.745 142.44C119.276 144.974 122.499 146.699 126.008 147.397C129.516 148.095 133.153 147.734 136.458 146.361C139.762 144.988 142.586 142.663 144.572 139.681C146.557 136.7 147.617 133.195 147.614 129.61C147.611 124.806 145.704 120.2 142.313 116.803C138.922 113.407 134.324 111.5 129.529 111.5Z" fill="white"/>
<path d="M183.52 131.167C179.328 131.167 175.23 129.922 171.745 127.588C168.259 125.254 165.543 121.936 163.939 118.055C162.335 114.174 161.916 109.903 162.735 105.783C163.553 101.664 165.573 97.8797 168.538 94.9101C171.504 91.9406 175.281 89.9189 179.393 89.1007C183.505 88.2826 187.766 88.7049 191.639 90.314C195.511 91.9231 198.82 94.6469 201.147 98.1408C203.475 101.635 204.716 105.742 204.714 109.942C204.708 115.572 202.472 120.969 198.499 124.948C194.525 128.928 189.138 131.164 183.52 131.167ZM183.52 91.8203C179.943 91.8203 176.447 92.8831 173.473 94.8744C170.499 96.8656 168.181 99.6959 166.812 103.007C165.443 106.319 165.085 109.962 165.782 113.478C166.48 116.993 168.203 120.222 170.732 122.757C173.261 125.291 176.484 127.017 179.992 127.716C183.5 128.415 187.136 128.057 190.441 126.685C193.746 125.313 196.57 122.991 198.558 120.01C200.545 117.03 201.605 113.527 201.605 109.942C201.602 105.137 199.696 100.529 196.305 97.1314C192.914 93.7335 188.316 91.8233 183.52 91.8203Z" fill="white"/>
<path d="M129.529 249.209C125.337 249.209 121.239 247.963 117.754 245.629C114.268 243.295 111.552 239.978 109.948 236.096C108.344 232.215 107.925 227.945 108.744 223.825C109.562 219.705 111.582 215.921 114.547 212.952C117.512 209.982 121.29 207.96 125.402 207.142C129.514 206.324 133.775 206.746 137.648 208.355C141.52 209.964 144.829 212.688 147.156 216.182C149.484 219.676 150.725 223.783 150.722 227.984C150.716 233.613 148.481 239.01 144.508 242.989C140.534 246.969 135.147 249.206 129.529 249.209ZM129.529 209.862C125.952 209.862 122.456 210.924 119.482 212.916C116.508 214.907 114.19 217.737 112.821 221.049C111.452 224.36 111.094 228.004 111.792 231.519C112.489 235.035 114.212 238.263 116.741 240.798C119.27 243.332 122.493 245.058 126.001 245.758C129.509 246.457 133.145 246.098 136.45 244.726C139.755 243.355 142.58 241.032 144.567 238.052C146.554 235.072 147.615 231.568 147.615 227.984C147.611 223.178 145.705 218.571 142.314 215.173C138.923 211.775 134.325 209.865 129.529 209.862Z" fill="white"/>
<path d="M183.52 268.888C179.328 268.888 175.231 267.642 171.746 265.309C168.26 262.975 165.544 259.659 163.94 255.778C162.336 251.898 161.916 247.628 162.734 243.508C163.552 239.389 165.57 235.605 168.534 232.635C171.498 229.665 175.274 227.642 179.385 226.823C183.496 226.003 187.758 226.424 191.631 228.031C195.503 229.638 198.813 232.36 201.142 235.853C203.47 239.345 204.714 243.451 204.714 247.651C204.711 253.283 202.476 258.682 198.502 262.664C194.529 266.646 189.14 268.885 183.52 268.888ZM183.52 229.541C179.943 229.541 176.446 230.604 173.471 232.596C170.497 234.587 168.179 237.418 166.81 240.73C165.442 244.042 165.085 247.687 165.783 251.202C166.482 254.718 168.206 257.947 170.736 260.481C173.267 263.015 176.49 264.74 179.999 265.438C183.508 266.136 187.145 265.775 190.449 264.402C193.754 263.029 196.577 260.704 198.563 257.722C200.549 254.741 201.608 251.236 201.605 247.651C201.602 242.847 199.695 238.24 196.304 234.844C192.913 231.448 188.315 229.541 183.52 229.541Z" fill="white"/>
<path d="M247.331 268.888C241.197 268.888 235.201 267.065 230.101 263.651C225.001 260.236 221.026 255.383 218.678 249.704C216.331 244.026 215.717 237.777 216.914 231.749C218.111 225.721 221.064 220.184 225.401 215.837C229.738 211.491 235.265 208.532 241.281 207.332C247.297 206.133 253.532 206.749 259.199 209.101C264.866 211.453 269.709 215.436 273.117 220.547C276.525 225.657 278.344 231.665 278.344 237.812C278.326 246.048 275.052 253.942 269.24 259.766C263.428 265.59 255.551 268.87 247.331 268.888ZM247.331 209.861C241.812 209.861 236.416 211.502 231.827 214.575C227.237 217.648 223.661 222.015 221.549 227.125C219.437 232.235 218.885 237.858 219.963 243.282C221.04 248.707 223.7 253.689 227.603 257.599C231.507 261.509 236.48 264.172 241.894 265.249C247.308 266.327 252.919 265.771 258.018 263.653C263.117 261.535 267.474 257.949 270.539 253.349C273.604 248.75 275.238 243.342 275.236 237.812C275.227 230.4 272.284 223.294 267.052 218.054C261.82 212.814 254.728 209.868 247.331 209.861Z" fill="white"/>
<path d="M301.322 131.167C297.13 131.167 293.032 129.922 289.547 127.588C286.061 125.254 283.344 121.936 281.741 118.055C280.137 114.174 279.718 109.903 280.537 105.783C281.355 101.664 283.375 97.8797 286.34 94.9101C289.305 91.9406 293.083 89.9189 297.195 89.1007C301.306 88.2826 305.568 88.7049 309.441 90.314C313.313 91.9231 316.622 94.6469 318.949 98.1408C321.277 101.635 322.517 105.742 322.515 109.942C322.506 115.571 320.27 120.966 316.297 124.945C312.324 128.923 306.939 131.161 301.322 131.167ZM301.322 91.8203C297.745 91.8203 294.249 92.8831 291.274 94.8744C288.3 96.8656 285.982 99.6959 284.613 103.007C283.245 106.319 282.886 109.962 283.584 113.478C284.282 116.993 286.004 120.222 288.534 122.757C291.063 125.291 294.286 127.017 297.794 127.716C301.302 128.415 304.938 128.057 308.243 126.685C311.547 125.313 314.372 122.991 316.36 120.01C318.347 117.03 319.407 113.527 319.407 109.942C319.404 105.137 317.498 100.529 314.107 97.1314C310.716 93.7335 306.118 91.8233 301.322 91.8203Z" fill="white"/>
<path d="M217.791 156.58L196.114 129.437L337.549 2.37496C339.194 0.863514 341.359 0.0498007 343.59 0.104923C345.821 0.160046 347.944 1.07969 349.512 2.67053C351.08 4.26136 351.972 6.3995 351.999 8.63542C352.027 10.8713 351.188 13.0309 349.66 14.6602L217.791 156.58ZM200.385 129.783L217.975 151.816L347.38 12.5376C348.101 11.7526 348.579 10.7744 348.755 9.72229C348.932 8.67013 348.799 7.58939 348.373 6.61152C347.947 5.63366 347.247 4.80089 346.357 4.21461C345.468 3.62833 344.428 3.31379 343.363 3.30933C341.985 3.29982 340.653 3.80109 339.622 4.71668L200.385 129.783Z" fill="white"/>
<path d="M217.791 156.58L196.114 129.437L219.011 108.869L241.344 131.236L217.791 156.58ZM200.385 129.783L217.975 151.816L237.016 131.317L218.896 113.161L200.385 129.783Z" fill="white"/>
<path d="M169.902 190.194C163.241 190.187 156.678 188.59 150.756 185.535C144.834 182.48 139.724 178.055 135.849 172.626L121.621 152.646H154.602C163.433 152.643 171.985 149.546 178.777 143.891L198.52 127.396L219.944 154.238L201.721 175.544C197.791 180.148 192.91 183.842 187.417 186.371C181.923 188.9 175.947 190.205 169.902 190.194ZM127.641 155.761L138.37 170.815C141.785 175.609 146.244 179.562 151.409 182.374C156.575 185.186 162.311 186.783 168.184 187.044C174.056 187.305 179.911 186.224 185.305 183.882C190.699 181.539 195.489 177.998 199.315 173.525L215.869 154.169L198.025 131.825L180.757 146.279C173.413 152.398 164.165 155.752 154.614 155.761H127.641Z" fill="white"/>
<path d="M104.986 193.216C112.933 193.216 119.375 186.76 119.375 178.797C119.375 170.833 112.933 164.377 104.986 164.377C97.0383 164.377 90.5957 170.833 90.5957 178.797C90.5957 186.76 97.0383 193.216 104.986 193.216Z" fill="#007DA1"/>
<path d="M183.52 124.512C191.468 124.512 197.91 118.056 197.91 110.093C197.91 102.129 191.468 95.6733 183.52 95.6733C175.573 95.6733 169.13 102.129 169.13 110.093C169.13 118.056 175.573 124.512 183.52 124.512Z" fill="#007DA1"/>
<path d="M183.52 262.405C191.652 262.405 198.244 255.8 198.244 247.651C198.244 239.503 191.652 232.898 183.52 232.898C175.388 232.898 168.796 239.503 168.796 247.651C168.796 255.8 175.388 262.405 183.52 262.405Z" fill="#007DA1"/>
<path d="M75.5277 267.17C50.5595 242.964 36.5356 210.155 36.5356 175.948C36.5356 141.741 50.5595 108.933 75.5277 84.7273" stroke="white" stroke-width="3" stroke-miterlimit="10" stroke-linecap="round"/>
<path d="M40.992 267.17C16.0239 242.964 2 210.155 2 175.948C2 141.741 16.0239 108.933 40.992 84.7273" stroke="white" stroke-width="3" stroke-miterlimit="10" stroke-linecap="round"/>
</svg>
