<svg width="90" height="100" viewBox="0 0 90 100" fill="none" xmlns="http://www.w3.org/2000/svg">
<path d="M0.595299 94.1106C2.88034 93.129 5.14918 92.1099 7.59514 91.6164C7.79134 91.5775 7.99076 91.556 8.19073 91.552V43.1799L6.60826 41.0344L8.19073 39.4252V22.7112L5.37466 23.2476L2.79457 24.9318L1.10498 27.4368L0.514893 29.7487V94.1481L0.595299 94.1106Z" fill="#A7D9DB"/>
<path d="M13.2168 94.0461V51.7031H21.0052V90.935L13.2168 94.0461Z" fill="#A7D9DB"/>
<path d="M72.172 0.536377H65.2954V17.5937H72.172V0.536377Z" fill="#A7D9DB"/>
<path d="M72.172 26.1223H65.2954V43.1797H72.172V26.1223Z" fill="#A7D9DB"/>
<path d="M54.6424 58.5261H47.7659V75.5835H54.6424V58.5261Z" fill="#A7D9DB"/>
<path d="M89.2828 58.5261H82.4062V75.5835H89.2828V58.5261Z" fill="#A7D9DB"/>
<path d="M13.6514 93.8745L13.9517 94.5986L15.8881 96.0523V99.4637H27.8283V96.0523L21.0053 90.9351L13.6514 93.8745Z" fill="#A7D9DB"/>
<path d="M21.5414 52.245H0V30.387C0.00283852 28.2098 0.868804 26.1227 2.40827 24.5832C3.94775 23.0437 6.03509 22.1776 8.21223 22.1748H11.2321V23.2476H8.21223C6.31918 23.249 4.50405 24.0016 3.16546 25.3402C1.82687 26.6788 1.07421 28.4939 1.07279 30.387V51.1722H20.4686V45.5401H21.5414V52.245ZM21.5414 33.7984H20.4686V29.5073C20.4697 28.2709 20.106 27.0616 19.4228 26.0311C18.7396 25.0006 17.7675 24.1947 16.6282 23.7143L17.0465 22.7272C18.3801 23.2892 19.5181 24.2324 20.3178 25.4385C21.1174 26.6447 21.543 28.0601 21.5414 29.5073V33.7984Z" fill="black"/>
<path d="M1.07279 94.3465H0V51.1667H21.5416V90.935H20.4688V52.2395H1.07279V94.3465Z" fill="black"/>
<path d="M14.1824 24.9532C13.1358 24.9518 12.1323 24.5354 11.3923 23.7954C10.6522 23.0553 10.236 22.052 10.2346 21.0054V19.0797L12.2568 17.0575H18.1302V21.0054C18.1302 22.0524 17.7142 23.0566 16.9739 23.7969C16.2335 24.5373 15.2294 24.9532 14.1824 24.9532ZM11.3074 19.5249V21.0054C11.3088 21.5928 11.4897 22.1658 11.826 22.6474C12.1623 23.129 12.638 23.4963 13.189 23.7C13.74 23.9037 14.34 23.9341 14.9087 23.787C15.4774 23.64 15.9877 23.3226 16.3709 22.8774C16.8133 22.3538 17.0564 21.6908 17.0574 21.0054V18.1303H12.7018L11.3074 19.5249Z" fill="black"/>
<path d="M10.2505 20.5976V15.888C10.2519 14.8414 10.6683 13.8382 11.4084 13.0981C12.1485 12.358 13.1517 11.9416 14.1983 11.9402H16.9072C17.6887 11.9416 18.4376 12.2531 18.9897 12.8062C19.5418 13.3593 19.8519 14.1088 19.8519 14.8904C19.8487 15.6722 19.5386 16.4215 18.9884 16.9769L17.8352 18.1302H12.718L10.2505 20.5976ZM14.1983 13.013C13.4362 13.0144 12.7058 13.3178 12.1669 13.8567C11.628 14.3955 11.3247 15.126 11.3233 15.888V18.0336L12.2727 17.0843H17.3899L18.232 16.2421C18.578 15.8881 18.7707 15.4122 18.7684 14.9172C18.7684 14.4202 18.5714 13.9435 18.2204 13.5916C17.8695 13.2397 17.3935 13.0412 16.8965 13.0398L14.1983 13.013Z" fill="black"/>
<path d="M28.3646 100H15.888V98.9272H27.2918V96.3204L20.9248 91.5411L13.4152 94.5449L13.0183 93.5526L21.0857 90.3235L28.3646 95.784V100Z" fill="black"/>
<path d="M16.3064 47.1276C14.5051 47.1231 12.7294 46.7013 11.1185 45.8954C9.50756 45.0895 8.10517 43.9213 7.02142 42.4825L5.71265 40.7392L14.5469 33.6749L16.049 35.6756L29.094 29.1531L30.4405 25.1194C30.5528 24.7789 30.7638 24.4795 31.0468 24.2593C31.3298 24.0391 31.6718 23.908 32.0295 23.8827C32.3871 23.8574 32.7443 23.939 33.0554 24.1172C33.3665 24.2954 33.6175 24.5621 33.7767 24.8834L34.8924 27.1094L38.3038 25.4037L39.5807 27.9623C40.3595 29.5194 40.5155 31.3147 40.0173 32.9829C39.519 34.6511 38.4039 36.0666 36.8987 36.9415L22.1478 45.5238C20.3773 46.5667 18.3613 47.1202 16.3064 47.1276ZM7.18773 40.9269L7.86896 41.8388C9.41865 43.9071 11.6748 45.3333 14.208 45.8456C16.7412 46.358 19.3743 45.9208 21.6059 44.6173L36.3516 36.035C37.2234 35.526 37.9468 34.7979 38.4502 33.9228C38.9537 33.0477 39.2193 32.0561 39.2211 31.0465C39.2181 30.1493 39.0091 29.2647 38.6098 28.4612L37.8104 26.852L34.399 28.5577L32.7898 25.3715C32.7283 25.2492 32.6342 25.1463 32.5177 25.0744C32.4012 25.0024 32.267 24.9641 32.1301 24.9638C31.9756 24.9639 31.8249 25.0127 31.6997 25.1032C31.5746 25.1937 31.4813 25.3214 31.4329 25.468L29.947 29.9255L15.7271 37.0327L14.3539 35.1982L7.18773 40.9269Z" fill="black"/>
<path d="M72.7083 43.7107H44.3438V25.5859H56.8203V26.6587H45.4165V42.6379H71.6355V26.6587H60.2317V25.5859H72.7083V43.7107Z" fill="black"/>
<path d="M72.7083 100H44.3438V92.6406H45.4165V98.9272H71.6355V92.6406H72.7083V100Z" fill="black"/>
<path d="M72.7083 89.2293H71.6355V82.9428H45.4165V89.2293H44.3438V81.87H72.7083V89.2293Z" fill="black"/>
<path d="M55.6509 76.1199H27.2917V57.9897H39.7683V59.0625H28.3645V75.0471H54.5781V59.0625H43.1744V57.9897H55.6509V76.1199Z" fill="black"/>
<path d="M89.7657 76.1199H61.4011V57.9897H73.8777V59.0625H62.4739V75.0471H88.6929V59.0625H77.2891V57.9897H89.7657V76.1199Z" fill="black"/>
<path d="M72.7084 18.1302H44.3491V0.0214844H72.7084V18.1302ZM45.4219 17.0574H71.6356V1.09427H45.4219V17.0574Z" fill="black"/>
<path d="M58.5259 38.819L55.0876 35.3807C54.8448 35.1399 54.6784 34.8328 54.6093 34.4978C54.5402 34.1629 54.5715 33.8151 54.6992 33.4979C54.8269 33.1806 55.0454 32.9081 55.3272 32.7144C55.6091 32.5208 55.9418 32.4145 56.2837 32.4091V17.0575H60.7682V32.4091C61.1097 32.4156 61.4415 32.5225 61.7226 32.7166C62.0036 32.9106 62.2212 33.1832 62.3483 33.5002C62.4753 33.8173 62.5061 34.1647 62.4368 34.4992C62.3675 34.8336 62.2013 35.1403 61.9588 35.3807L58.5259 38.819ZM56.3159 33.4819C56.1839 33.4827 56.0551 33.5225 55.9456 33.5962C55.8361 33.6699 55.7509 33.7744 55.7005 33.8964C55.65 34.0184 55.6367 34.1525 55.6622 34.282C55.6877 34.4115 55.751 34.5307 55.844 34.6244L58.5259 37.3064L61.2079 34.6244C61.3009 34.5307 61.3642 34.4115 61.3897 34.282C61.4152 34.1525 61.4019 34.0184 61.3514 33.8964C61.301 33.7744 61.2158 33.6699 61.1063 33.5962C60.9968 33.5225 60.868 33.4827 60.736 33.4819H59.7006V18.1303H57.362V33.4819H56.3159Z" fill="black"/>
<path d="M41.4741 69.5222L38.0357 66.084C37.7954 65.8422 37.6314 65.5352 37.5637 65.2011C37.4961 64.867 37.5279 64.5204 37.6551 64.2042C37.7824 63.8879 37.9995 63.6159 38.2798 63.4219C38.5601 63.2278 38.8911 63.1202 39.2318 63.1123V51.7086C39.2293 51.4104 39.2858 51.1147 39.3982 50.8386C39.5105 50.5624 39.6765 50.3111 39.8864 50.0994C40.097 49.888 40.348 49.7212 40.6244 49.6088C40.9009 49.4963 41.1972 49.4406 41.4955 49.445H56.3108V42.6221H60.795V49.445H75.6048C75.8994 49.4443 76.1915 49.5018 76.4639 49.6142C76.7362 49.7266 76.9836 49.8918 77.192 50.1001C77.4003 50.3084 77.5654 50.5559 77.6778 50.8283C77.7902 51.1006 77.8477 51.3924 77.847 51.6871V63.0908C78.1889 63.0963 78.5216 63.2025 78.8035 63.3962C79.0854 63.5898 79.3039 63.8624 79.4316 64.1796C79.5593 64.4968 79.5905 64.8447 79.5214 65.1796C79.4523 65.5146 79.286 65.8217 79.0432 66.0625L75.6048 69.5008L72.1667 66.0625C71.9264 65.8207 71.7621 65.5137 71.6944 65.1796C71.6268 64.8455 71.6586 64.499 71.7859 64.1827C71.9131 63.8665 72.1305 63.5945 72.4108 63.4005C72.691 63.2064 73.022 63.0987 73.3628 63.0908V53.9292H43.7378V63.0908C44.0786 63.0987 44.4096 63.2064 44.6898 63.4005C44.9701 63.5945 45.1872 63.8665 45.3145 64.1827C45.4418 64.499 45.4735 64.8455 45.4059 65.1796C45.3382 65.5137 45.1742 65.8207 44.9339 66.0625L41.4741 69.5222ZM73.3788 64.1583C73.2468 64.1591 73.118 64.1988 73.0085 64.2726C72.899 64.3463 72.8137 64.4507 72.7633 64.5727C72.7129 64.6947 72.6995 64.8289 72.7251 64.9585C72.7506 65.088 72.8139 65.207 72.9068 65.3008L75.5888 67.9827L78.2708 65.3008C78.3642 65.207 78.4278 65.0878 78.4536 64.958C78.4794 64.8282 78.4662 64.6936 78.4156 64.5713C78.3661 64.4485 78.2807 64.3435 78.1707 64.2698C78.0607 64.1962 77.9312 64.1573 77.7988 64.1583H76.7635V51.6818C76.7621 51.3721 76.6383 51.0754 76.4193 50.8564C76.2003 50.6374 75.9037 50.5138 75.594 50.5124H59.7115V43.6895H57.3729V50.5124H41.4848C41.3311 50.5111 41.1786 50.5408 41.0367 50.5998C40.8947 50.6588 40.7663 50.7459 40.6587 50.8557C40.5494 50.9636 40.4629 51.0923 40.4039 51.2341C40.3449 51.376 40.3147 51.5282 40.3154 51.6818V64.1583H39.2803C39.1478 64.158 39.0182 64.197 38.9079 64.2703C38.7975 64.3437 38.7114 64.4481 38.6604 64.5703C38.6093 64.6925 38.5955 64.8271 38.6208 64.9571C38.6462 65.0872 38.7096 65.2067 38.8028 65.3008L41.4848 67.9827L44.1668 65.3008C44.2597 65.207 44.323 65.088 44.3485 64.9585C44.3741 64.8289 44.3607 64.6947 44.3103 64.5727C44.2599 64.4507 44.1747 64.3463 44.0652 64.2726C43.9557 64.1988 43.8268 64.1591 43.6948 64.1583H42.6595V52.8511H74.4301V64.1583H73.3788Z" fill="black"/>
<path d="M51.2202 94.8881C50.7627 94.8869 50.3237 94.7075 49.9962 94.3881C49.6688 94.0687 49.4787 93.6343 49.4661 93.177H36.3567C36.0585 93.1796 35.7628 93.123 35.4866 93.0107C35.2104 92.8984 34.9593 92.7325 34.7475 92.5226C34.5361 92.3119 34.3694 92.0609 34.2569 91.7845C34.1445 91.5081 34.0889 91.2118 34.0933 90.9134V75.0254H38.5774V88.6713H49.4447C49.4526 88.3305 49.5602 87.9995 49.7542 87.7193C49.9483 87.439 50.2203 87.2218 50.5366 87.0945C50.8528 86.9672 51.1996 86.9354 51.5337 87.0031C51.8678 87.0707 52.1745 87.2349 52.4163 87.4751L55.8547 90.9134L52.4163 94.3517C52.1043 94.6817 51.6741 94.8746 51.2202 94.8881ZM35.1875 76.1143V90.9295C35.1889 91.2392 35.3124 91.5358 35.5314 91.7548C35.7504 91.9738 36.047 92.0975 36.3567 92.0989H50.5389V93.1341C50.5387 93.2665 50.5777 93.3961 50.651 93.5064C50.7243 93.6168 50.8287 93.7029 50.9509 93.754C51.0731 93.805 51.2077 93.8187 51.3378 93.7934C51.4678 93.768 51.5876 93.7047 51.6816 93.6115L54.3636 90.9295L51.6816 88.2475C51.6202 88.1847 51.5466 88.1347 51.4656 88.1007C51.3845 88.0666 51.2974 88.049 51.2094 88.0491C51.0316 88.0491 50.8611 88.1197 50.7354 88.2454C50.6096 88.3712 50.5389 88.5417 50.5389 88.7196V89.7548H37.5261V76.1089L35.1875 76.1143Z" fill="black"/>
<path d="M65.8424 94.8881C65.613 94.8849 65.3867 94.8358 65.1766 94.7437C64.9666 94.6516 64.7769 94.5183 64.6193 94.3517L61.1812 90.9134L64.6193 87.4751C64.8611 87.2349 65.1681 87.0707 65.5022 87.0031C65.8363 86.9354 66.1828 86.9672 66.499 87.0945C66.8152 87.2218 67.0873 87.439 67.2813 87.7193C67.4754 87.9995 67.583 88.3305 67.5909 88.6713H78.4584V75.0254H82.9426V90.9134C82.9433 91.208 82.8858 91.4999 82.7734 91.7723C82.661 92.0446 82.4959 92.2921 82.2875 92.5004C82.0792 92.7088 81.8318 92.8739 81.5594 92.9863C81.2871 93.0987 80.995 93.1563 80.7004 93.1555H67.5909C67.5892 93.4946 67.4861 93.8254 67.2949 94.1055C67.1038 94.3856 66.8333 94.6021 66.5181 94.7272C66.3065 94.8274 66.0764 94.8822 65.8424 94.8881ZM62.6989 90.9349L65.3809 93.6168C65.475 93.7101 65.5948 93.7734 65.7248 93.7987C65.8548 93.8241 65.9894 93.8104 66.1116 93.7593C66.2339 93.7083 66.3382 93.6221 66.4115 93.5118C66.4848 93.4015 66.5239 93.2719 66.5236 93.1394V92.1042H80.7059C81.0156 92.1028 81.3122 91.9791 81.5311 91.7602C81.7501 91.5412 81.8736 91.2446 81.875 90.9349V76.1197H79.5364V89.7656H66.5181V88.7303C66.5173 88.5983 66.4777 88.4695 66.4039 88.36C66.3302 88.2505 66.2258 88.1651 66.1038 88.1147C65.9818 88.0643 65.8475 88.0511 65.718 88.0766C65.5885 88.1022 65.4694 88.1653 65.3757 88.2583L62.6989 90.9349Z" fill="black"/>
<path d="M16.4242 100H0V93.9817L9.1187 90.3289L16.3975 95.784L16.4242 100ZM1.07279 98.9273H15.3514V96.3204L8.98461 91.5465L1.07279 94.7112V98.9273Z" fill="black"/>
</svg>
