<svg width="230" height="55" viewBox="0 0 230 55" fill="none" xmlns="http://www.w3.org/2000/svg">
<path d="M23.58 0.031743H25.0923C25.3598 0.0281176 25.6244 0.0871862 25.8653 0.204255C26.1061 0.321325 26.3165 0.493174 26.4799 0.706213C26.6432 0.919252 26.755 1.16763 26.8063 1.43164C26.8576 1.69566 26.8472 1.96807 26.7757 2.2273L18.3853 32.8725C18.3166 33.1297 18.3077 33.3995 18.3595 33.6608C18.4113 33.9221 18.5223 34.1678 18.6839 34.379C18.8454 34.5901 19.0532 34.7609 19.2911 34.8781C19.529 34.9953 19.7906 35.0558 20.0555 35.0548H31.6679C32.0543 35.0523 32.4291 34.9212 32.7336 34.6819C33.0381 34.4427 33.2553 34.1087 33.3512 33.7322L38.1513 16.1148C38.2404 15.7371 38.4539 15.4009 38.7571 15.1607C39.0604 14.9206 39.4355 14.7907 39.8215 14.7922H41.2812C41.5473 14.7892 41.8104 14.8481 42.0499 14.9644C42.2895 15.0808 42.499 15.2513 42.6621 15.4627C42.8251 15.6741 42.9373 15.9206 42.9898 16.1829C43.0423 16.4452 43.0336 16.7162 42.9646 16.9745L32.983 53.6773C32.8918 54.0539 32.6777 54.3888 32.3749 54.6286C32.0721 54.8683 31.6982 54.9991 31.3128 54.9999H29.8399C29.5739 55.003 29.3107 54.944 29.0712 54.8277C28.8316 54.7114 28.6221 54.5408 28.459 54.3294C28.296 54.118 28.1838 53.8715 28.1313 53.6092C28.0788 53.3469 28.0875 53.076 28.1565 52.8176L31.0103 42.3557C31.0794 42.0973 31.088 41.8263 31.0355 41.564C30.983 41.3017 30.8709 41.0552 30.7078 40.8438C30.5447 40.6324 30.3352 40.4619 30.0956 40.3456C29.8561 40.2292 29.593 40.1703 29.327 40.1733H13.6246C13.3507 40.1773 13.0797 40.116 12.8338 39.9944C12.5879 39.8728 12.3742 39.6945 12.21 39.4739C12.0458 39.2533 11.9359 38.9967 11.8892 38.7252C11.8425 38.4537 11.8603 38.1749 11.9413 37.9116L21.9098 1.35437C22.0031 0.978918 22.2177 0.645276 22.52 0.40587C22.8224 0.166463 23.1952 0.0348611 23.58 0.031743Z" fill="#007C9F"/>
<path d="M4.9818e-05 36.7877V38.3881C0.00352049 38.8488 0.187944 39.2895 0.513119 39.614C0.838295 39.9386 1.27786 40.1207 1.73598 40.1207H5.98377C6.36854 40.1176 6.74138 39.986 7.0437 39.7466C7.34602 39.5072 7.56067 39.1735 7.65394 38.7981L8.08793 37.2109C8.15699 36.9525 8.16563 36.6816 8.11314 36.4193C8.06066 36.157 7.94849 35.9105 7.78543 35.6991C7.62237 35.4877 7.41284 35.3172 7.17327 35.2008C6.9337 35.0845 6.67061 35.0256 6.4046 35.0286H1.73598C1.50691 35.0286 1.2801 35.0742 1.06862 35.1627C0.857145 35.2513 0.665188 35.3811 0.503818 35.5446C0.342449 35.7081 0.214859 35.9022 0.128397 36.1155C0.0419359 36.3288 -0.00168561 36.5573 4.9818e-05 36.7877Z" fill="#A7D9DB"/>
<path d="M11.9411 14.8714H1.73593C1.27781 14.8714 0.838245 15.0535 0.51307 15.3781C0.187894 15.7026 0.00347067 16.1433 0 16.604V18.178C0.0103472 18.6329 0.198214 19.0654 0.523023 19.3822C0.847831 19.699 1.28351 19.8745 1.73593 19.8709H11.4677C11.8547 19.8707 12.2306 19.7405 12.5356 19.5008C12.8406 19.2612 13.0572 18.9259 13.151 18.5483L13.585 16.9611C13.6348 16.7125 13.6302 16.456 13.5714 16.2094C13.5126 15.9627 13.4011 15.732 13.2447 15.5331C13.0882 15.3342 12.8906 15.172 12.6654 15.0577C12.4403 14.9434 12.1932 14.8799 11.9411 14.8714Z" fill="#A7D9DB"/>
<path d="M41.7283 36.3379L41.3075 37.9119C41.2363 38.17 41.2257 38.4412 41.2763 38.7042C41.3269 38.9672 41.4375 39.2149 41.5994 39.4276C41.7612 39.6404 41.9699 39.8125 42.2091 39.9305C42.4482 40.0484 42.7113 40.109 42.9777 40.1074H53.3933C53.8514 40.1074 54.291 39.9253 54.6162 39.6008C54.9413 39.2762 55.1258 38.8355 55.1292 38.3748V36.7876C55.1258 36.3269 54.9413 35.8862 54.6162 35.5617C54.291 35.2371 53.8514 35.055 53.3933 35.055H43.4117C43.0304 35.0551 42.6596 35.1805 42.3557 35.4121C42.0518 35.6437 41.8315 35.9688 41.7283 36.3379Z" fill="#A7D9DB"/>
<path d="M47.2255 16.1544L46.7915 17.7283C46.7224 17.9867 46.7138 18.2576 46.7663 18.5199C46.8188 18.7822 46.9309 19.0287 47.094 19.2401C47.257 19.4515 47.4666 19.622 47.7061 19.7384C47.9457 19.8547 48.2088 19.9136 48.4748 19.9106H53.3933C53.6206 19.9123 53.8461 19.8688 54.0566 19.7825C54.2672 19.6962 54.4586 19.5689 54.62 19.4078C54.7814 19.2468 54.9094 19.0552 54.9968 18.8441C55.0842 18.633 55.1292 18.4066 55.1292 18.178V16.604C55.1258 16.1433 54.9413 15.7026 54.6162 15.3781C54.291 15.0535 53.8514 14.8714 53.3933 14.8714H48.8956C48.5155 14.87 48.1456 14.995 47.8435 15.2271C47.5414 15.4591 47.3241 15.7852 47.2255 16.1544Z" fill="#A7D9DB"/>
<path d="M32.1412 14.8714H28.643C28.2576 14.8722 27.8837 15.003 27.5809 15.2427C27.2781 15.4825 27.064 15.8175 26.9728 16.194L26.5388 17.7679C26.4838 18.021 26.4859 18.2832 26.5449 18.5353C26.6039 18.7874 26.7183 19.023 26.8798 19.2248C27.0413 19.4265 27.2458 19.5893 27.4781 19.7011C27.7104 19.8129 27.9646 19.871 28.2222 19.8709H31.6677C32.0531 19.8701 32.4271 19.7393 32.7298 19.4996C33.0326 19.2598 33.2467 18.9249 33.3379 18.5483L33.7719 16.9611C33.8239 16.7134 33.8213 16.4571 33.7642 16.2104C33.7072 15.9638 33.597 15.7327 33.4415 15.5335C33.2861 15.3342 33.0891 15.1717 32.8644 15.0573C32.6397 14.9429 32.3929 14.8795 32.1412 14.8714Z" fill="#A7D9DB"/>
<path d="M9.9159 45.3844L7.9038 52.7779C7.83473 53.0363 7.8261 53.3072 7.87858 53.5695C7.93107 53.8318 8.04323 54.0783 8.20629 54.2897C8.36936 54.5011 8.57889 54.6717 8.81845 54.788C9.05802 54.9043 9.32111 54.9633 9.58713 54.9602H11.0469C11.4317 54.9571 11.8045 54.8255 12.1068 54.5861C12.4091 54.3467 12.6238 54.013 12.7171 53.6376L14.7292 46.3235C14.7982 46.0651 14.8069 45.7942 14.7544 45.5319C14.7019 45.2696 14.5897 45.0231 14.4267 44.8117C14.2636 44.6003 14.0541 44.4297 13.8145 44.3134C13.575 44.1971 13.3119 44.1381 13.0458 44.1412H11.5861C11.2111 44.1373 10.8451 44.2567 10.5436 44.4811C10.2422 44.7054 10.0218 45.0226 9.9159 45.3844Z" fill="#A7D9DB"/>
<path d="M44.9635 9.59419L46.9756 2.20073C47.0467 1.94259 47.0574 1.67136 47.0068 1.40836C46.9561 1.14536 46.8456 0.897755 46.6837 0.684993C46.5219 0.472232 46.3132 0.300103 46.074 0.182148C45.8349 0.0641929 45.5718 0.00361564 45.3054 0.0051754H43.8325C43.4487 0.0155793 43.0792 0.153645 42.7818 0.397748C42.4843 0.641851 42.2757 0.978225 42.1886 1.35426L40.1765 8.74771C40.1074 9.00609 40.0988 9.27704 40.1513 9.53933C40.2038 9.80163 40.3159 10.0481 40.479 10.2595C40.6421 10.4709 40.8516 10.6415 41.0911 10.7578C41.3307 10.8741 41.5938 10.9331 41.8598 10.93H43.3196C43.7022 10.9226 44.0715 10.7873 44.3691 10.5454C44.6668 10.3035 44.8759 9.96885 44.9635 9.59419Z" fill="#A7D9DB"/>
<path d="M66.0708 45.5298C66.5336 45.524 66.9889 45.6476 67.3859 45.8869C67.7788 46.123 68.1013 46.4611 68.3196 46.8656C68.5446 47.3054 68.6619 47.7929 68.6619 48.2874C68.6619 48.782 68.5446 49.2695 68.3196 49.7093C68.1038 50.1261 67.7815 50.4776 67.3859 50.7277C66.9937 50.9809 66.5368 51.1141 66.0708 51.1112H63.3617L63.4669 50.9393V54.2591C63.4676 54.3304 63.454 54.4012 63.4269 54.4671C63.3998 54.533 63.3597 54.5927 63.3091 54.6427C63.2629 54.6946 63.2061 54.7357 63.1425 54.7631C63.0788 54.7905 63.01 54.8036 62.9408 54.8014C62.8696 54.8046 62.7985 54.7921 62.7326 54.7647C62.6667 54.7372 62.6076 54.6956 62.5594 54.6427C62.5088 54.5927 62.4687 54.533 62.4416 54.4671C62.4145 54.4012 62.4009 54.3304 62.4016 54.2591V46.0456C62.4033 45.9734 62.4193 45.9023 62.4487 45.8365C62.478 45.7706 62.5202 45.7113 62.5726 45.662C62.6222 45.6111 62.6816 45.5708 62.7472 45.5435C62.8127 45.5162 62.8831 45.5026 62.954 45.5033L66.0708 45.5298ZM66.0708 50.0664C66.3479 50.0712 66.6195 49.9879 66.8467 49.8283C67.0763 49.6653 67.2617 49.447 67.3859 49.1934C67.5177 48.9123 67.5852 48.6049 67.5831 48.2941C67.5879 47.9872 67.5203 47.6835 67.3859 47.4079C67.2613 47.1582 67.0758 46.9443 66.8467 46.7863C66.6145 46.6388 66.3454 46.5608 66.0708 46.5614H63.3617L63.4669 46.4027V50.1986L63.3617 50.0664H66.0708Z" fill="white"/>
<path d="M71.0156 54.8279C70.8566 54.8295 70.7024 54.7731 70.5816 54.6692C70.5248 54.6227 70.4789 54.5643 70.4471 54.498C70.4153 54.4317 70.3984 54.3592 70.3975 54.2856V46.0721C70.3975 45.9283 70.4543 45.7904 70.5554 45.6887C70.6565 45.587 70.7937 45.5298 70.9367 45.5298H74.6189C75.0779 45.5279 75.53 45.6416 75.9341 45.8605C76.3354 46.0935 76.6684 46.4291 76.8994 46.8333C77.1303 47.2374 77.251 47.6957 77.2492 48.1619C77.2533 48.5212 77.1816 48.8773 77.0387 49.2067C76.8973 49.5206 76.6963 49.8036 76.4469 50.04C76.2031 50.2792 75.9118 50.464 75.5921 50.5823L75.3028 50.3706C75.5989 50.4305 75.8777 50.5572 76.1182 50.741C76.3721 50.9381 76.5785 51.1904 76.722 51.4789C76.8654 51.7675 76.9422 52.0849 76.9467 52.4075C76.9467 52.7381 76.9467 53.0027 76.9467 53.1878C76.9621 53.3474 77.002 53.5035 77.065 53.6508C77.1137 53.7581 77.1911 53.8497 77.2886 53.9153C77.4095 53.9847 77.499 54.0984 77.5385 54.2327C77.5582 54.2982 77.5613 54.3676 77.5475 54.4346C77.5337 54.5016 77.5035 54.564 77.4596 54.6162C77.4111 54.7042 77.3312 54.7704 77.236 54.8014C77.1405 54.821 77.0421 54.821 76.9467 54.8014C76.8542 54.7868 76.7651 54.7554 76.6837 54.7088C76.5265 54.6169 76.3881 54.4957 76.276 54.3517C76.1126 54.1609 75.9956 53.9345 75.9341 53.6904C75.8446 53.2958 75.8048 52.8914 75.8157 52.4868C75.8203 52.2452 75.7708 52.0057 75.671 51.7859C75.5868 51.6116 75.4656 51.4581 75.316 51.3362C75.163 51.2307 74.9943 51.1503 74.8162 51.0981C74.626 51.0565 74.4322 51.0344 74.2376 51.0319H71.2654L71.4232 50.8071V54.2591C71.4278 54.3989 71.381 54.5355 71.2917 54.6427C71.2258 54.7368 71.1273 54.8028 71.0156 54.8279ZM71.3575 50.0929H74.6189C74.8841 50.0751 75.139 49.9835 75.3554 49.8284C75.5891 49.6552 75.7785 49.4285 75.9077 49.167C76.0493 48.8606 76.1212 48.5262 76.1182 48.1883C76.1246 47.7568 75.9643 47.3395 75.671 47.0244C75.5264 46.8741 75.3524 46.7554 75.1601 46.6757C74.9678 46.5961 74.7612 46.5572 74.5532 46.5615H71.4101L71.5153 46.297V50.2648L71.3575 50.0929Z" fill="white"/>
<path d="M87.7043 50.1722C87.712 50.8219 87.6005 51.4676 87.3755 52.0767C87.1583 52.6394 86.837 53.1555 86.4287 53.5977C86.0249 54.0227 85.5424 54.3642 85.0084 54.6029C84.434 54.8453 83.8164 54.9668 83.1935 54.96C82.5949 54.9743 81.9998 54.8642 81.4454 54.6367C80.891 54.4091 80.3893 54.0689 79.9715 53.6374C79.5715 53.1913 79.2551 52.676 79.0378 52.1164C78.617 50.8865 78.617 49.5504 79.0378 48.3205C79.2522 47.7594 79.5689 47.2436 79.9715 46.7995C80.3742 46.3672 80.8625 46.0248 81.405 45.7943C81.9701 45.5519 82.5792 45.4302 83.1935 45.4372C83.8164 45.4304 84.434 45.5519 85.0084 45.7943C85.545 46.0284 86.0284 46.3705 86.4287 46.7995C86.8399 47.2395 87.1616 47.7562 87.3755 48.3205C87.5942 48.913 87.7056 49.5401 87.7043 50.1722ZM86.547 50.1722C86.5577 49.5071 86.4088 48.8493 86.113 48.2544C85.8527 47.7017 85.438 47.2373 84.9195 46.9179C84.4011 46.5985 83.8013 46.4378 83.1935 46.4556C82.5857 46.4449 81.9877 46.6101 81.4707 46.9317C80.9635 47.2556 80.5541 47.713 80.2871 48.2544C79.9988 48.8514 79.8546 49.5085 79.8663 50.1722C79.8565 50.8399 80.0005 51.5008 80.2871 52.1032C80.5615 52.6394 80.9693 53.0951 81.4707 53.4258C81.9877 53.7474 82.5857 53.9127 83.1935 53.902C83.8096 53.9126 84.416 53.7475 84.9426 53.4258C85.4438 53.0986 85.8481 52.6417 86.113 52.1032C86.4104 51.5041 86.5593 50.8416 86.547 50.1722Z" fill="white"/>
<path d="M91.4523 54.9604C90.9323 54.9695 90.4207 54.8271 89.9794 54.5504C89.5443 54.2813 89.1863 53.903 88.9405 53.4527C88.8878 53.3593 88.8564 53.2554 88.8484 53.1484C88.8503 53.0783 88.8665 53.0092 88.8959 52.9455C88.9253 52.8819 88.9673 52.8249 89.0194 52.7781C89.1219 52.6886 89.2519 52.6372 89.3876 52.6326C89.485 52.6341 89.5803 52.6615 89.6638 52.712C89.7464 52.7687 89.8178 52.8405 89.8742 52.9236C90.0447 53.2069 90.2733 53.4504 90.5449 53.6378C90.8148 53.8141 91.1305 53.9062 91.4523 53.9024C91.7917 53.9085 92.1268 53.8265 92.4255 53.6642C92.7065 53.5117 92.939 53.2825 93.0962 53.0029C93.2673 52.7156 93.3539 52.3854 93.346 52.0506V46.0724C93.3444 45.9997 93.3589 45.9276 93.3885 45.8612C93.4181 45.7949 93.462 45.736 93.517 45.6889C93.5686 45.6369 93.6302 45.596 93.6981 45.5688C93.7659 45.5415 93.8385 45.5283 93.9115 45.5301C93.9848 45.5267 94.0579 45.5391 94.1259 45.5665C94.194 45.5939 94.2554 45.6356 94.3061 45.6889C94.399 45.7948 94.4504 45.9311 94.4507 46.0724V52.0506C94.4542 52.5694 94.3227 53.0801 94.0693 53.532C93.8114 53.9681 93.4441 54.3284 93.0041 54.5769C92.5275 54.8348 91.9935 54.9668 91.4523 54.9604Z" fill="white"/>
<path d="M97.3307 45.5299H102.078C102.219 45.5277 102.356 45.5797 102.46 45.6754C102.515 45.7219 102.56 45.7807 102.589 45.8472C102.619 45.9137 102.633 45.9861 102.631 46.0589C102.632 46.1297 102.617 46.1999 102.588 46.2641C102.558 46.3283 102.514 46.3848 102.46 46.4293C102.354 46.5213 102.218 46.5687 102.078 46.5615H97.791L97.9093 46.3367V49.6829L97.7778 49.5374H101.473C101.618 49.5345 101.759 49.5864 101.868 49.6829C101.92 49.7319 101.961 49.7914 101.988 49.8575C102.015 49.9237 102.028 49.9949 102.026 50.0665C102.029 50.1362 102.016 50.2057 101.989 50.2698C101.962 50.3339 101.92 50.391 101.868 50.4368C101.759 50.5333 101.618 50.5852 101.473 50.5823H97.8173L97.9093 50.4368V53.8889L97.8304 53.7963H102.078C102.149 53.7939 102.22 53.8068 102.286 53.8342C102.352 53.8615 102.411 53.9027 102.46 53.955C102.513 53.9981 102.555 54.0525 102.585 54.1142C102.615 54.176 102.63 54.2436 102.631 54.3121C102.633 54.383 102.619 54.4536 102.589 54.5179C102.56 54.5823 102.515 54.6387 102.46 54.6824C102.356 54.7781 102.219 54.8301 102.078 54.8279H97.3307C97.1877 54.8279 97.0505 54.7708 96.9494 54.6691C96.8483 54.5674 96.7915 54.4295 96.7915 54.2856V46.0722C96.7915 45.9283 96.8483 45.7904 96.9494 45.6887C97.0505 45.587 97.1877 45.5299 97.3307 45.5299Z" fill="white"/>
<path d="M104.196 46.5485C104.055 46.5482 103.92 46.4965 103.814 46.4031C103.763 46.3567 103.722 46.2995 103.695 46.2355C103.667 46.1715 103.654 46.1023 103.656 46.0327C103.653 45.963 103.666 45.8935 103.693 45.8294C103.721 45.7653 103.762 45.7082 103.814 45.6624C103.921 45.5726 104.057 45.5256 104.196 45.5301H110.403C110.473 45.5268 110.543 45.5381 110.609 45.5631C110.674 45.5881 110.734 45.6264 110.784 45.6756C110.837 45.7214 110.878 45.7785 110.905 45.8426C110.933 45.9067 110.945 45.9762 110.942 46.0459C110.943 46.1153 110.929 46.184 110.902 46.2477C110.875 46.3115 110.835 46.3689 110.784 46.4163C110.678 46.506 110.542 46.5531 110.403 46.5485H104.196ZM107.299 54.8282C107.226 54.8317 107.153 54.8204 107.085 54.7947C107.016 54.7691 106.954 54.7297 106.901 54.679C106.848 54.6283 106.806 54.5673 106.777 54.4997C106.748 54.4321 106.734 54.3594 106.734 54.2859V46.0856H107.865V54.2594C107.866 54.3308 107.852 54.4015 107.825 54.4674C107.798 54.5333 107.758 54.5931 107.707 54.643C107.655 54.7001 107.592 54.746 107.522 54.7779C107.452 54.8097 107.376 54.8268 107.299 54.8282Z" fill="white"/>
<path d="M115.269 54.9602C114.677 54.9738 114.088 54.8751 113.533 54.6692C113.002 54.4519 112.517 54.138 112.099 53.7433C112.033 53.6897 111.979 53.622 111.942 53.545C111.924 53.4621 111.924 53.3765 111.942 53.2937C111.941 53.2223 111.954 53.1516 111.982 53.0857C112.009 53.0197 112.049 52.9601 112.099 52.9101C112.147 52.8561 112.206 52.8129 112.272 52.7833C112.338 52.7537 112.409 52.7383 112.481 52.7382C112.605 52.7414 112.723 52.7936 112.81 52.8836C113.138 53.2082 113.521 53.4723 113.941 53.664C114.358 53.8373 114.804 53.9271 115.256 53.9285C115.615 53.9318 115.971 53.869 116.308 53.7433C116.594 53.6315 116.85 53.455 117.057 53.2275C117.238 53.0085 117.336 52.732 117.333 52.4472C117.351 52.1275 117.242 51.8139 117.031 51.5743C116.806 51.3187 116.521 51.1232 116.202 51.0055C115.814 50.832 115.408 50.699 114.993 50.6087C114.609 50.5112 114.232 50.392 113.862 50.2516C113.54 50.1256 113.238 49.9517 112.967 49.7358C112.717 49.5262 112.515 49.2645 112.376 48.9687C112.237 48.6383 112.17 48.2822 112.178 47.9238C112.166 47.4519 112.304 46.9883 112.573 46.6012C112.857 46.2081 113.244 45.9015 113.691 45.715C114.206 45.494 114.762 45.3858 115.321 45.3976C115.846 45.3906 116.367 45.4803 116.86 45.6621C117.302 45.8088 117.703 46.058 118.03 46.3896C118.106 46.4513 118.168 46.5277 118.213 46.614C118.258 46.7003 118.285 46.7949 118.294 46.8922C118.292 46.9605 118.276 47.0278 118.247 47.0895C118.217 47.1511 118.175 47.2056 118.123 47.2493C118.075 47.2992 118.018 47.339 117.954 47.3663C117.891 47.3936 117.823 47.4078 117.754 47.408C117.654 47.4124 117.556 47.3794 117.478 47.3154C117.31 47.1356 117.115 46.9838 116.9 46.8657C116.658 46.7307 116.402 46.6241 116.137 46.5483C115.872 46.469 115.597 46.4289 115.321 46.4293C114.954 46.4248 114.588 46.4876 114.243 46.6144C113.962 46.7085 113.712 46.8777 113.52 47.1038C113.338 47.3217 113.244 47.6001 113.257 47.8841C113.243 48.185 113.347 48.4795 113.546 48.7042C113.767 48.9407 114.036 49.1258 114.335 49.2465C114.692 49.3871 115.056 49.5063 115.427 49.6035C115.838 49.6995 116.242 49.8232 116.636 49.9739C116.978 50.0916 117.298 50.266 117.583 50.4897C117.852 50.6909 118.068 50.954 118.215 51.2568C118.367 51.6251 118.439 52.0221 118.425 52.4207C118.436 52.8945 118.293 53.3591 118.017 53.7433C117.719 54.1316 117.331 54.4404 116.886 54.6428C116.378 54.8688 115.825 54.9773 115.269 54.9602Z" fill="white"/>
<path d="M134.561 45.4902C134.706 45.4919 134.845 45.5433 134.956 45.6356C135.016 45.6876 135.064 45.7527 135.096 45.826C135.128 45.8993 135.143 45.9789 135.14 46.0589C135.15 46.1246 135.15 46.1915 135.14 46.2573L132.313 54.484C132.274 54.5863 132.205 54.674 132.115 54.7353C132.021 54.784 131.918 54.8153 131.813 54.8279C131.707 54.8285 131.603 54.8012 131.51 54.7485C131.413 54.6859 131.339 54.593 131.3 54.484L128.985 49.1274H129.104L126.894 54.4179C126.845 54.5287 126.762 54.6212 126.658 54.6824C126.565 54.735 126.461 54.7624 126.355 54.7618C126.258 54.749 126.164 54.7176 126.079 54.6692C125.989 54.6079 125.92 54.5201 125.882 54.4179L123.067 46.3234C123.057 46.2577 123.057 46.1908 123.067 46.125C123.064 46.0437 123.08 45.9627 123.114 45.8889C123.149 45.8152 123.2 45.751 123.265 45.7018C123.383 45.6133 123.525 45.5627 123.672 45.5563C123.78 45.5544 123.886 45.5868 123.975 45.6489C124.024 45.6768 124.067 45.7147 124.101 45.7602C124.135 45.8058 124.159 45.858 124.172 45.9134L126.671 53.2275H126.474L128.643 47.937C128.678 47.829 128.747 47.7358 128.841 47.6725C128.936 47.6141 129.045 47.5822 129.156 47.5799C129.263 47.5845 129.367 47.6163 129.459 47.6725C129.552 47.7358 129.622 47.829 129.656 47.937L131.76 53.2275L131.589 53.2936L134.075 45.9928C134.085 45.9363 134.108 45.883 134.142 45.8371C134.177 45.7912 134.221 45.7539 134.272 45.7282C134.339 45.6182 134.441 45.5342 134.561 45.4902Z" fill="white"/>
<path d="M137.178 45.5298H141.926C142.066 45.5302 142.202 45.5819 142.307 45.6753C142.361 45.7236 142.404 45.7827 142.433 45.8488C142.463 45.9149 142.478 45.9865 142.478 46.0589C142.476 46.1291 142.46 46.1981 142.431 46.2618C142.401 46.3255 142.359 46.3825 142.307 46.4292C142.201 46.519 142.065 46.5661 141.926 46.5615H137.626L137.757 46.3366V49.6829L137.612 49.5374H141.321C141.466 49.5345 141.607 49.5864 141.716 49.6829C141.767 49.7318 141.808 49.7914 141.836 49.8575C141.863 49.9237 141.876 49.9949 141.873 50.0665C141.877 50.1362 141.864 50.2057 141.837 50.2698C141.809 50.3339 141.768 50.391 141.716 50.4368C141.607 50.5333 141.466 50.5852 141.321 50.5823H137.652L137.757 50.4368V53.8888L137.665 53.7962H141.926C141.997 53.7955 142.067 53.8091 142.133 53.8364C142.198 53.8637 142.258 53.904 142.307 53.9549C142.358 54.0002 142.399 54.0551 142.428 54.1164C142.458 54.1776 142.475 54.2442 142.478 54.3121C142.478 54.3825 142.463 54.4521 142.433 54.516C142.404 54.58 142.361 54.6367 142.307 54.6824C142.202 54.7759 142.066 54.8275 141.926 54.8279H137.178C137.107 54.8303 137.036 54.8174 136.971 54.79C136.905 54.7626 136.846 54.7214 136.797 54.6692C136.742 54.622 136.698 54.5631 136.669 54.4968C136.639 54.4304 136.624 54.3583 136.626 54.2856V46.0721C136.624 45.9994 136.639 45.9273 136.669 45.8609C136.698 45.7946 136.742 45.7357 136.797 45.6886C136.846 45.6363 136.905 45.5951 136.971 45.5678C137.036 45.5404 137.107 45.5275 137.178 45.5298Z" fill="white"/>
<path d="M148.252 45.5299C148.91 45.4847 149.561 45.698 150.066 46.1251C150.398 46.5002 150.61 46.9664 150.676 47.4638C150.741 47.9611 150.657 48.4669 150.435 48.9159C150.253 49.2437 149.985 49.514 149.659 49.6962C149.255 49.9155 148.802 50.0249 148.344 50.0136V49.6433C148.668 49.6501 148.99 49.6945 149.304 49.7756C149.626 49.8677 149.933 50.0105 150.211 50.1988C150.491 50.4038 150.721 50.6708 150.882 50.9791C151.076 51.34 151.171 51.7462 151.158 52.1563C151.174 52.6118 151.084 53.0647 150.895 53.4789C150.742 53.8039 150.512 54.0857 150.224 54.2989C149.941 54.4994 149.625 54.6472 149.291 54.7354C148.952 54.8257 148.602 54.8702 148.252 54.8677H144.767C144.695 54.87 144.625 54.8571 144.559 54.8298C144.493 54.8024 144.434 54.7612 144.385 54.7089C144.33 54.6618 144.286 54.6029 144.257 54.5366C144.227 54.4702 144.213 54.3981 144.214 54.3254V46.1119C144.213 46.0392 144.227 45.9671 144.257 45.9007C144.286 45.8344 144.33 45.7755 144.385 45.7283C144.434 45.6761 144.493 45.6349 144.559 45.6075C144.625 45.5802 144.695 45.5672 144.767 45.5696L148.252 45.5299ZM148.094 46.5748H145.227L145.398 46.35V49.6433L145.24 49.4714H148.107C148.303 49.4908 148.502 49.4655 148.687 49.3973C148.873 49.3291 149.04 49.2198 149.178 49.0775C149.316 48.9353 149.42 48.7636 149.483 48.5753C149.545 48.3871 149.565 48.187 149.54 47.99C149.556 47.7984 149.53 47.6057 149.464 47.4253C149.398 47.2448 149.294 47.081 149.159 46.9452C149.016 46.8142 148.847 46.7139 148.664 46.6503C148.481 46.5866 148.287 46.561 148.094 46.5748ZM148.199 50.5427H145.293L145.398 50.4369V53.9154L145.279 53.7963H148.252C148.723 53.8279 149.19 53.687 149.567 53.3996C149.741 53.2458 149.876 53.0533 149.963 52.8375C150.05 52.6216 150.085 52.3884 150.066 52.1563C150.095 51.8051 150.002 51.4548 149.803 51.1643C149.635 50.9305 149.395 50.7586 149.12 50.675C148.822 50.5791 148.511 50.5344 148.199 50.5427Z" fill="white"/>
<path d="M157.155 45.5294H161.863C162.003 45.5297 162.139 45.5814 162.244 45.6749C162.298 45.7231 162.341 45.7823 162.37 45.8483C162.4 45.9144 162.415 45.986 162.415 46.0584C162.413 46.1286 162.397 46.1977 162.368 46.2613C162.338 46.325 162.296 46.382 162.244 46.4288C162.138 46.5185 162.002 46.5656 161.863 46.561H157.562L157.694 46.3362V49.6824L157.549 49.5369H161.258C161.403 49.534 161.544 49.5859 161.652 49.6824C161.704 49.7313 161.745 49.7909 161.773 49.857C161.8 49.9232 161.813 49.9944 161.81 50.066C161.813 50.1357 161.801 50.2052 161.774 50.2693C161.746 50.3334 161.705 50.3905 161.652 50.4363C161.544 50.5328 161.403 50.5847 161.258 50.5818H157.589L157.694 50.4363V53.8884L157.602 53.7958H161.863C161.934 53.795 162.004 53.8086 162.07 53.8359C162.135 53.8632 162.195 53.9035 162.244 53.9545C162.295 53.9997 162.336 54.0546 162.365 54.1159C162.395 54.1772 162.412 54.2437 162.415 54.3116C162.415 54.3821 162.399 54.4516 162.37 54.5156C162.34 54.5795 162.298 54.6362 162.244 54.6819C162.139 54.7754 162.003 54.8271 161.863 54.8274H157.115C157.044 54.8298 156.973 54.8169 156.908 54.7895C156.842 54.7621 156.783 54.7209 156.734 54.6687C156.682 54.615 156.644 54.5501 156.621 54.479C156.598 54.408 156.592 54.3326 156.602 54.2587V46.0452C156.601 45.9725 156.615 45.9004 156.645 45.834C156.674 45.7677 156.718 45.7088 156.773 45.6616C156.824 45.6141 156.885 45.5779 156.95 45.5551C157.016 45.5323 157.086 45.5235 157.155 45.5294Z" fill="white"/>
<path d="M164.02 46.5485C163.879 46.5482 163.744 46.4965 163.638 46.4031C163.587 46.3567 163.546 46.2995 163.519 46.2355C163.491 46.1715 163.478 46.1023 163.48 46.0327C163.477 45.963 163.49 45.8935 163.517 45.8294C163.545 45.7653 163.586 45.7082 163.638 45.6624C163.745 45.5726 163.881 45.5256 164.02 45.5301H170.227C170.297 45.5268 170.367 45.5381 170.433 45.5631C170.498 45.5881 170.558 45.6264 170.608 45.6756C170.661 45.7214 170.702 45.7785 170.729 45.8426C170.757 45.9067 170.769 45.9762 170.766 46.0459C170.767 46.1153 170.753 46.184 170.726 46.2477C170.699 46.3115 170.659 46.3689 170.608 46.4163C170.502 46.506 170.366 46.5531 170.227 46.5485H164.02ZM167.11 54.8282C167.035 54.8302 166.96 54.8173 166.89 54.79C166.82 54.7628 166.757 54.7218 166.702 54.6694C166.61 54.5635 166.558 54.4272 166.558 54.2859V46.0856H167.689V54.2594C167.69 54.3308 167.676 54.4015 167.649 54.4674C167.622 54.5333 167.582 54.5931 167.531 54.643C167.479 54.6995 167.416 54.745 167.346 54.7768C167.276 54.8086 167.2 54.826 167.123 54.8282H167.11Z" fill="white"/>
<path d="M176.579 45.5163C176.673 45.5189 176.766 45.5427 176.851 45.5862C176.935 45.6297 177.008 45.6917 177.065 45.7677L180.603 51.0581H180.116L183.693 45.7677C183.741 45.6909 183.806 45.6276 183.885 45.5836C183.963 45.5396 184.051 45.5164 184.141 45.5163C184.283 45.5215 184.418 45.5778 184.522 45.6751C184.578 45.7216 184.622 45.7803 184.652 45.8468C184.681 45.9133 184.696 45.9858 184.693 46.0586V54.2589C184.694 54.3302 184.68 54.401 184.653 54.4669C184.626 54.5328 184.586 54.5925 184.535 54.6425C184.481 54.6948 184.417 54.7358 184.347 54.763C184.277 54.7903 184.202 54.8032 184.127 54.8012C184.052 54.8048 183.977 54.7925 183.907 54.7652C183.837 54.7379 183.773 54.6961 183.72 54.6425C183.627 54.5365 183.575 54.4002 183.575 54.2589V47.0506H183.904L180.761 51.8253C180.708 51.896 180.641 51.9547 180.564 51.9972C180.482 52.0235 180.395 52.0235 180.314 51.9972C180.237 52.0216 180.154 52.0216 180.077 51.9972C180.001 51.9582 179.937 51.8986 179.893 51.8253L176.789 47.0638L177.065 46.7067V54.2589C177.065 54.4002 177.014 54.5365 176.921 54.6425C176.872 54.6947 176.813 54.7359 176.747 54.7633C176.681 54.7906 176.61 54.8036 176.539 54.8012C176.47 54.8034 176.401 54.7903 176.338 54.7629C176.274 54.7355 176.217 54.6944 176.171 54.6425C176.122 54.5919 176.084 54.5317 176.059 54.4657C176.034 54.3998 176.023 54.3294 176.026 54.2589V46.0586C176.028 45.9151 176.084 45.7776 176.184 45.6751C176.236 45.6231 176.297 45.5823 176.365 45.555C176.433 45.5277 176.506 45.5145 176.579 45.5163Z" fill="white"/>
<path d="M195.438 50.1722C195.445 50.8219 195.334 51.4676 195.109 52.0768C194.892 52.6394 194.57 53.1555 194.162 53.5978C193.761 54.0256 193.277 54.3676 192.742 54.603C192.167 54.8453 191.55 54.9668 190.927 54.9601C190.312 54.9658 189.704 54.8443 189.138 54.603C188.6 54.3709 188.117 54.0285 187.718 53.5978C187.309 53.1585 186.991 52.6413 186.784 52.0768C186.345 50.8499 186.345 49.5076 186.784 48.2808C186.988 47.7148 187.306 47.1971 187.718 46.7598C188.113 46.3251 188.598 45.9821 189.138 45.7546C189.704 45.5133 190.312 45.3917 190.927 45.3975C191.55 45.3907 192.167 45.5123 192.742 45.7546C193.28 45.9853 193.764 46.3279 194.162 46.7598C194.573 47.1998 194.895 47.7165 195.109 48.2808C195.332 48.8858 195.444 49.5268 195.438 50.1722ZM194.28 50.1722C194.291 49.5071 194.142 48.8493 193.846 48.2544C193.586 47.7018 193.171 47.2373 192.653 46.9179C192.134 46.5985 191.534 46.4378 190.927 46.4556C190.319 46.4449 189.721 46.6102 189.204 46.9318C188.697 47.2556 188.287 47.713 188.02 48.2544C187.732 48.8514 187.588 49.5085 187.6 50.1722C187.59 50.8399 187.734 51.5008 188.02 52.1032C188.295 52.6395 188.702 53.0951 189.204 53.4258C189.721 53.7474 190.319 53.9127 190.927 53.902C191.543 53.9148 192.15 53.7495 192.676 53.4258C193.177 53.0986 193.581 52.6418 193.846 52.1032C194.144 51.5041 194.292 50.8416 194.28 50.1722Z" fill="white"/>
<path d="M201.198 45.5298C201.86 45.4893 202.513 45.7019 203.026 46.125C203.244 46.3519 203.412 46.622 203.521 46.918C203.63 47.214 203.676 47.5295 203.657 47.8444C203.659 48.2196 203.564 48.5889 203.381 48.9158C203.203 49.2463 202.933 49.5174 202.605 49.6961C202.201 49.9154 201.748 50.0248 201.29 50.0135V49.6432C201.614 49.6491 201.936 49.6935 202.25 49.7755C202.572 49.8676 202.879 50.0104 203.157 50.1987C203.466 50.4185 203.715 50.7132 203.88 51.0553C204.046 51.3975 204.123 51.7761 204.104 52.1562C204.124 52.6106 204.039 53.0635 203.854 53.4788C203.697 53.801 203.467 54.0818 203.183 54.2988C202.901 54.4993 202.584 54.6471 202.25 54.7353C201.906 54.8255 201.553 54.87 201.198 54.8675H197.713C197.64 54.8693 197.567 54.8562 197.499 54.8289C197.431 54.8016 197.37 54.7608 197.318 54.7088C197.267 54.6589 197.227 54.5992 197.2 54.5333C197.173 54.4674 197.159 54.3966 197.16 54.3253V46.1118C197.159 46.0405 197.173 45.9697 197.2 45.9038C197.227 45.8379 197.267 45.7782 197.318 45.7282C197.37 45.6763 197.431 45.6354 197.499 45.6081C197.567 45.5809 197.64 45.5677 197.713 45.5695L201.198 45.5298ZM201.053 46.5747H198.186L198.344 46.3499V49.6432L198.199 49.4713H201.066C201.44 49.4814 201.804 49.3437 202.079 49.0877C202.223 48.9458 202.335 48.7743 202.408 48.5849C202.481 48.3955 202.512 48.1925 202.499 47.9899C202.515 47.7983 202.489 47.6056 202.423 47.4252C202.358 47.2447 202.253 47.0809 202.118 46.9451C201.974 46.8154 201.805 46.7159 201.622 46.6523C201.44 46.5887 201.246 46.5624 201.053 46.5747ZM201.145 50.5426H198.252L198.344 50.4368V53.9153L198.239 53.7962H201.198C201.669 53.8243 202.135 53.6837 202.513 53.3995C202.684 53.2438 202.818 53.051 202.905 52.8356C202.991 52.6203 203.028 52.3879 203.012 52.1562C203.034 51.8056 202.942 51.4573 202.749 51.1642C202.576 50.9349 202.338 50.7642 202.066 50.6749C201.768 50.5807 201.457 50.536 201.145 50.5426Z" fill="white"/>
<path d="M207.01 54.2593C207.011 54.3306 206.997 54.4014 206.97 54.4673C206.943 54.5332 206.903 54.5929 206.852 54.6428C206.746 54.7442 206.605 54.8009 206.458 54.8016C206.383 54.8052 206.308 54.7929 206.237 54.7656C206.167 54.7383 206.103 54.6965 206.05 54.6428C206 54.5929 205.959 54.5332 205.932 54.4673C205.905 54.4014 205.892 54.3306 205.892 54.2593V46.0458C205.892 45.9744 205.905 45.9037 205.932 45.8378C205.959 45.7719 206 45.7122 206.05 45.6622C206.106 45.6089 206.172 45.5674 206.245 45.5401C206.317 45.5129 206.394 45.5004 206.471 45.5035C206.614 45.5035 206.751 45.5607 206.852 45.6623C206.953 45.764 207.01 45.902 207.01 46.0458V54.2593Z" fill="white"/>
<path d="M214.467 53.7831C214.612 53.7827 214.752 53.8343 214.862 53.9286C214.912 53.9785 214.952 54.0383 214.979 54.1042C215.007 54.1701 215.02 54.2409 215.019 54.3122C215.022 54.3818 215.009 54.451 214.981 54.515C214.954 54.579 214.913 54.6361 214.862 54.6825C214.752 54.7769 214.612 54.8285 214.467 54.828H209.851C209.778 54.8298 209.705 54.8166 209.638 54.7894C209.57 54.7621 209.508 54.7212 209.456 54.6693C209.364 54.5633 209.312 54.427 209.312 54.2857V46.0722C209.311 46.0009 209.325 45.9302 209.352 45.8642C209.379 45.7983 209.419 45.7386 209.47 45.6887C209.523 45.6351 209.587 45.5932 209.657 45.5659C209.727 45.5386 209.802 45.5263 209.877 45.5299C209.95 45.5281 210.023 45.5413 210.091 45.5686C210.159 45.5959 210.22 45.6367 210.272 45.6887C210.322 45.7386 210.363 45.7983 210.39 45.8642C210.417 45.9302 210.43 46.0009 210.43 46.0722V54.008L210.167 53.7699L214.467 53.7831Z" fill="white"/>
<path d="M217.097 45.5298H221.845C221.985 45.5302 222.121 45.5819 222.226 45.6753C222.278 45.7243 222.319 45.7838 222.346 45.85C222.373 45.9161 222.386 45.9874 222.384 46.0589C222.384 46.1282 222.371 46.1969 222.343 46.2607C222.316 46.3244 222.276 46.3818 222.226 46.4292C222.119 46.519 221.984 46.5661 221.845 46.5615H217.544L217.676 46.3366V49.6829L217.531 49.5374H221.24C221.385 49.5345 221.526 49.5864 221.634 49.6829C221.686 49.7318 221.727 49.7914 221.754 49.8575C221.782 49.9237 221.794 49.9949 221.792 50.0665C221.795 50.1362 221.783 50.2057 221.755 50.2698C221.728 50.3339 221.687 50.391 221.634 50.4368C221.526 50.5333 221.385 50.5852 221.24 50.5823H217.571L217.676 50.4368V53.8888L217.584 53.7962H221.845C221.916 53.7955 221.986 53.8091 222.051 53.8364C222.117 53.8637 222.176 53.904 222.226 53.9549C222.275 54.0004 222.315 54.0556 222.342 54.117C222.369 54.1784 222.383 54.2448 222.384 54.3121C222.386 54.3817 222.373 54.4509 222.346 54.5149C222.319 54.5788 222.278 54.636 222.226 54.6824C222.121 54.7759 221.985 54.8275 221.845 54.8279H217.097C217.026 54.8303 216.955 54.8174 216.889 54.79C216.824 54.7626 216.764 54.7214 216.716 54.6692C216.661 54.622 216.617 54.5631 216.587 54.4968C216.558 54.4304 216.543 54.3583 216.545 54.2856V46.0721C216.543 45.9994 216.558 45.9273 216.587 45.8609C216.617 45.7946 216.661 45.7357 216.716 45.6886C216.764 45.6363 216.824 45.5951 216.889 45.5678C216.955 45.5404 217.026 45.5275 217.097 45.5298Z" fill="white"/>
<path d="M226.908 54.9605C226.316 54.9741 225.727 54.8754 225.172 54.6695C224.642 54.4522 224.156 54.1383 223.738 53.7436C223.672 53.69 223.618 53.6223 223.581 53.5453C223.562 53.4625 223.562 53.3767 223.581 53.294C223.566 53.1676 223.599 53.0404 223.673 52.9369C223.722 52.8841 223.781 52.8417 223.846 52.8122C223.912 52.7827 223.982 52.7666 224.054 52.7649C224.182 52.7675 224.305 52.8196 224.396 52.9104C224.718 53.2374 225.097 53.5019 225.514 53.6908C225.931 53.8628 226.378 53.9526 226.829 53.9553C227.188 53.9597 227.545 53.897 227.881 53.7701C228.167 53.6583 228.423 53.4818 228.631 53.2543C228.812 53.0352 228.909 52.7587 228.907 52.4739C228.917 52.1575 228.815 51.8478 228.617 51.601C228.387 51.3514 228.104 51.1571 227.789 51.0323C227.395 50.8608 226.985 50.7279 226.566 50.6355C226.183 50.5379 225.805 50.4187 225.435 50.2784C225.113 50.1524 224.811 49.9785 224.541 49.7626C224.291 49.556 224.092 49.2932 223.962 48.9955C223.813 48.6681 223.741 48.3105 223.752 47.9506C223.739 47.4786 223.877 47.0151 224.146 46.6279C224.431 46.2348 224.817 45.9282 225.264 45.7418C225.779 45.5208 226.335 45.4126 226.895 45.4244C227.419 45.4174 227.941 45.5071 228.433 45.6889C228.875 45.8355 229.276 46.0847 229.604 46.4163C229.681 46.4758 229.745 46.5516 229.79 46.6384C229.836 46.7252 229.862 46.821 229.867 46.9189C229.863 47.0542 229.806 47.1824 229.709 47.276C229.607 47.3765 229.47 47.4334 229.328 47.4347C229.231 47.4384 229.138 47.4053 229.065 47.3422C228.889 47.1649 228.69 47.0135 228.473 46.8925C228.235 46.7598 227.984 46.6534 227.723 46.575C227.454 46.4966 227.175 46.4565 226.895 46.456C226.527 46.4516 226.162 46.5143 225.816 46.6412C225.536 46.7353 225.285 46.9044 225.093 47.1305C224.918 47.352 224.825 47.6279 224.83 47.9109C224.816 48.2118 224.92 48.5062 225.119 48.7309C225.34 48.9674 225.609 49.1525 225.908 49.2732C226.265 49.4138 226.629 49.5331 227 49.6303C227.411 49.7262 227.815 49.8499 228.21 50.0006C228.555 50.1213 228.878 50.2954 229.17 50.5165C229.434 50.7185 229.646 50.9816 229.788 51.2836C229.94 51.6519 230.012 52.0488 229.998 52.4475C230.01 52.9213 229.867 53.3859 229.591 53.7701C229.296 54.1615 228.906 54.471 228.46 54.6695C227.969 54.877 227.44 54.9762 226.908 54.9605Z" fill="white"/>
<path d="M96.2 18.0856C96.1998 13.5124 97.903 9.10509 100.974 5.73227C102.568 3.96544 104.506 2.5473 106.668 1.56602C109.045 0.497586 111.626 -0.0350983 114.23 0.00531341C117.285 -0.0715767 120.303 0.687283 122.962 2.20087C125.294 3.52976 127.184 5.5222 128.394 7.92783L122.989 11.6576C122.452 10.4019 121.622 9.29496 120.569 8.43043C119.61 7.67095 118.517 7.10099 117.347 6.7507C116.273 6.41766 115.156 6.24389 114.033 6.23487C112.412 6.1959 110.807 6.56412 109.364 7.30619C108.077 7.99268 106.955 8.95425 106.076 10.1234C105.192 11.287 104.52 12.599 104.091 13.9987C103.648 15.4018 103.422 16.8648 103.42 18.3369C103.413 19.8959 103.676 21.4443 104.196 22.9131C104.675 24.3594 105.415 25.7045 106.379 26.881C107.321 27.9894 108.48 28.89 109.785 29.5263C111.134 30.1956 112.621 30.5355 114.125 30.5182C115.282 30.5096 116.431 30.3222 117.531 29.9627C118.716 29.5722 119.817 28.9621 120.779 28.164C121.819 27.2925 122.647 26.1931 123.199 24.95L128.972 28.3227C128.195 30.1419 126.957 31.7244 125.382 32.9122C123.745 34.1843 121.897 35.1559 119.924 35.7823C117.988 36.416 115.964 36.7418 113.928 36.7478C111.454 36.7851 109.007 36.2321 106.787 35.1342C104.666 34.0822 102.768 32.627 101.197 30.8489C99.6298 29.0746 98.3835 27.0378 97.5151 24.8309C96.6619 22.6847 96.2159 20.3969 96.2 18.0856Z" fill="white"/>
<path d="M155.827 9.76652C155.418 9.40972 154.978 9.09098 154.511 8.81423C153.762 8.36674 152.985 7.96911 152.184 7.62388C151.228 7.19693 150.238 6.85183 149.225 6.59224C148.163 6.32335 147.072 6.18564 145.976 6.18221C144.454 6.08412 142.938 6.44814 141.623 7.22709C141.146 7.56734 140.762 8.0234 140.507 8.55292C140.252 9.08244 140.134 9.66822 140.164 10.2559C140.143 10.6895 140.214 11.1225 140.373 11.5262C140.532 11.9299 140.774 12.2949 141.084 12.5969C141.903 13.2736 142.853 13.7734 143.872 14.065C145.108 14.4751 146.647 14.9115 148.501 15.3877C150.655 15.8697 152.752 16.5744 154.761 17.4906C156.379 18.1989 157.785 19.3206 158.838 20.7443C159.847 22.3404 160.339 24.212 160.245 26.1009C160.296 27.7927 159.925 29.4703 159.167 30.9814C158.462 32.3159 157.447 33.4594 156.208 34.3144C154.891 35.2002 153.425 35.8366 151.881 36.1925C150.182 36.5863 148.443 36.7816 146.7 36.7745C144.867 36.7731 143.038 36.587 141.242 36.219C139.442 35.8494 137.681 35.3091 135.982 34.6054C134.35 33.9224 132.79 33.076 131.326 32.0791L134.469 25.9951C134.97 26.4573 135.522 26.8611 136.113 27.1987C137.037 27.7695 138.004 28.2649 139.006 28.68C140.206 29.2183 141.446 29.6605 142.715 30.0026C144.044 30.3348 145.409 30.5036 146.779 30.5052C148.295 30.6092 149.811 30.2888 151.158 29.5794C151.62 29.2912 151.998 28.8845 152.252 28.401C152.506 27.9175 152.628 27.3747 152.605 26.8283C152.632 26.3269 152.542 25.8259 152.341 25.3662C152.14 24.9065 151.834 24.5011 151.447 24.1831C150.458 23.453 149.35 22.9024 148.173 22.5563C146.765 22.1066 145.095 21.6172 143.175 21.1146C141.171 20.5949 139.227 19.8633 137.376 18.9323C135.988 18.2358 134.802 17.1929 133.93 15.9035C133.112 14.5325 132.71 12.9512 132.773 11.3537C132.693 9.13644 133.324 6.95216 134.574 5.12412C135.836 3.42855 137.544 2.12261 139.506 1.35464C141.643 0.46144 143.938 0.0115731 146.253 0.03202C147.891 0.0267293 149.525 0.217639 151.118 0.600738C152.596 0.952476 154.037 1.44863 155.419 2.08209C156.672 2.64281 157.877 3.30636 159.022 4.06602L155.827 9.76652Z" fill="white"/>
<path d="M191.9 30.4521V36.7214H166.137V0.0318184H191.426V6.30106H173.344V15.1626H188.915V20.9557H173.344V30.4521H191.9Z" fill="white"/>
<path d="M212.231 36.7744C209.728 36.8091 207.249 36.2851 204.972 35.2402C202.842 34.2478 200.933 32.8356 199.356 31.0871C197.789 29.3521 196.55 27.3441 195.7 25.1618C194.844 23.0073 194.398 20.7102 194.385 18.39C194.362 16.0192 194.809 13.6675 195.7 11.4726C196.59 9.30202 197.864 7.31219 199.461 5.60021C201.066 3.87139 202.997 2.48195 205.143 1.51329C207.395 0.495996 209.841 -0.0183969 212.31 0.0055007C214.81 -0.0259077 217.284 0.516923 219.543 1.59264C221.671 2.60954 223.572 4.04928 225.132 5.82505C226.666 7.57272 227.881 9.5785 228.722 11.7504C229.548 13.9025 229.971 16.1892 229.972 18.4958C229.973 20.8474 229.527 23.1775 228.657 25.3602C227.791 27.531 226.534 29.522 224.948 31.2326C223.346 32.9516 221.419 34.332 219.28 35.2931C217.062 36.2846 214.659 36.7896 212.231 36.7744ZM201.618 18.39C201.619 19.9355 201.863 21.4711 202.342 22.9398C202.794 24.3789 203.502 25.7233 204.433 26.9077C205.369 28.1011 206.571 29.0576 207.941 29.7007C209.311 30.3437 210.812 30.6554 212.323 30.611C213.915 30.6494 215.492 30.2904 216.913 29.5661C218.2 28.8798 219.329 27.929 220.227 26.7754C221.155 25.5979 221.848 24.2503 222.265 22.8075C222.707 21.386 222.933 19.9057 222.936 18.4164C222.943 16.8833 222.699 15.3595 222.213 13.9063C221.756 12.4905 221.043 11.1721 220.109 10.0178C219.188 8.89127 218.047 7.96817 216.755 7.30638C215.359 6.62409 213.822 6.28415 212.271 6.31441C210.709 6.29016 209.165 6.64878 207.773 7.35928C206.476 8.03653 205.334 8.97796 204.419 10.1236C203.5 11.2769 202.8 12.5905 202.355 13.9988C201.887 15.4159 201.638 16.8969 201.618 18.39Z" fill="white"/>
<path d="M79.6821 0.00514603L62.4148 36.774H69.5558L71.5942 32.3697L75.9603 22.7939H75.9472L79.5637 14.9508L83.0224 22.7939H79.1823L76.4469 29.0367H85.7447L89.1245 36.774H96.3313L79.6821 0.00514603Z" fill="white"/>
</svg>
